<svg width="13" height="23" viewBox="0 0 13 23" fill="none" xmlns="http://www.w3.org/2000/svg">
<path d="M10.6515 0C10.7704 0.114084 10.8349 0.24907 10.7661 0.409746C10.6929 0.581744 10.5401 0.608305 10.3694 0.613531C8.87845 0.657945 7.59565 1.57585 7.07269 2.96663C7.05484 3.01409 7.03829 3.06199 7.01739 3.10815C6.92987 3.30105 6.77529 3.37594 6.59763 3.3128C6.42433 3.25141 6.34508 3.08507 6.40517 2.88912C6.44087 2.77199 6.48485 2.65573 6.53536 2.54426C7.14106 1.20529 8.16695 0.379265 9.59431 0.04485C9.64308 0.0335286 9.68967 0.0152403 9.73713 0C10.0419 0 10.3467 0 10.6515 0Z" fill="#FEFAE0"/>
<path d="M6.64548 0C6.83272 0.215977 6.84404 0.360106 6.66333 0.549086C5.98057 1.26233 5.52597 2.09837 5.29867 3.05851C5.25861 3.22702 5.15672 3.33283 4.98211 3.33414C4.821 3.33545 4.70387 3.24705 4.66381 3.08812C4.64726 3.02237 4.66032 2.94442 4.676 2.87606C4.91375 1.8419 5.40623 0.943592 6.12513 0.166337C6.17259 0.114955 6.21135 0.0557359 6.25402 0C6.38465 0 6.51528 0 6.64591 0L6.64548 0Z" fill="#FEFAE0"/>
<path d="M2.0328 17.265C1.71624 17.1692 1.67356 17.1074 1.63699 16.7908C1.45541 15.2207 1.27035 13.6509 1.08659 12.0812C0.98296 11.1955 0.879326 10.3098 0.775257 9.42369C0.771773 9.39539 0.765677 9.36752 0.761323 9.34139C-0.10389 9.17767 -0.079941 8.3277 0.123408 7.76337C0.23009 7.46858 0.507028 7.3484 0.827945 7.3497C1.65527 7.35319 2.48217 7.35101 3.3095 7.35101C3.38788 7.35101 3.46626 7.35101 3.57076 7.35101C3.45406 6.23586 3.78021 5.3001 4.63889 4.58642C5.24589 4.08175 5.95695 3.86882 6.74292 3.92369C8.25563 4.02906 9.68952 5.40374 9.45743 7.35101C9.53799 7.35101 9.61549 7.35101 9.693 7.35101C10.5055 7.35101 11.3185 7.35014 12.131 7.35101C12.7027 7.35188 12.9967 7.64929 12.9975 8.22711C12.9975 8.37211 13.0084 8.51972 12.9845 8.66124C12.9305 8.98216 12.7459 9.20684 12.4241 9.28392C12.2856 9.31701 12.2421 9.38276 12.2277 9.51383C12.1271 10.4147 12.0174 11.3144 11.9185 12.2153C11.8959 12.4225 11.8371 12.5789 11.6102 12.6302C11.5697 12.6394 11.5214 12.6986 11.5118 12.7426C11.4857 12.8623 11.4748 12.986 11.4648 13.1084C11.4491 13.2978 11.3655 13.5011 11.6337 13.613C11.6934 13.6378 11.7274 13.8077 11.7169 13.9048C11.6115 14.8854 11.494 15.8642 11.3812 16.844C11.3585 17.0399 11.2889 17.1867 11.0751 17.2428C11.0276 17.2555 10.9793 17.356 10.9732 17.4201C10.9048 18.142 10.8447 18.8648 10.7816 19.5872C10.7145 20.3532 10.6492 21.1191 10.5761 21.8841C10.5495 22.1615 10.4446 22.2499 10.1668 22.2499C7.72875 22.2508 5.29074 22.2508 2.85273 22.2499C2.57753 22.2499 2.46824 22.1589 2.44124 21.8828C2.38507 21.3129 2.33586 20.742 2.29232 20.1707C2.27359 19.9264 2.40945 19.7705 2.63196 19.7509C2.80657 19.7357 2.93764 19.8642 2.96507 20.1006C3.01253 20.5173 3.05999 20.9349 3.08699 21.3534C3.09788 21.5184 3.14011 21.5802 3.31429 21.5798C5.25155 21.5746 7.18881 21.5754 9.12606 21.5789C9.26889 21.5789 9.34117 21.5367 9.35336 21.3891C9.38776 20.9776 9.42913 20.567 9.46614 20.1559C9.521 19.5428 9.5676 18.9284 9.63073 18.3162C9.6721 17.9134 9.52231 17.7275 9.11605 17.7275C7.0917 17.7262 5.06736 17.7288 3.04301 17.7236C2.84663 17.7231 2.76041 17.7771 2.78741 17.9835C2.81179 18.1699 2.82747 18.3584 2.83052 18.5461C2.83357 18.7377 2.70163 18.8944 2.5501 18.9053C2.35502 18.9197 2.17823 18.7812 2.1569 18.5783C2.11074 18.1459 2.0746 17.7122 2.0328 17.265ZM6.10457 9.84781C4.66109 9.84781 3.21762 9.84781 1.77415 9.84781C1.64178 9.84781 1.50897 9.8256 1.53727 10.0455C1.65527 10.9634 1.76457 11.8822 1.87125 12.8014C2.00711 13.9723 2.13861 15.1432 2.26968 16.3145C2.28709 16.4682 2.34936 16.5405 2.51918 16.5405C4.9929 16.5361 7.46618 16.5366 9.9399 16.5396C10.0901 16.5396 10.1541 16.4978 10.1711 16.3341C10.2556 15.5272 10.3544 14.7221 10.4489 13.9165C10.5856 12.7513 10.7276 11.5865 10.8569 10.42C10.9031 10.0028 10.7485 9.84824 10.3266 9.84781C8.91923 9.84694 7.5119 9.84781 6.105 9.84781H6.10457ZM6.51562 7.32706V7.31531C7.13133 7.31531 7.74747 7.31618 8.36318 7.31531C8.79121 7.31487 8.81908 7.28439 8.80558 6.84939C8.80558 6.84199 8.80558 6.83502 8.80471 6.82762C8.72851 5.38676 7.52932 4.40659 6.10849 4.62474C4.96808 4.79979 4.09154 5.94716 4.21956 7.09106C4.23916 7.26392 4.30404 7.33534 4.49345 7.33229C5.16707 7.3201 5.84113 7.3275 6.51518 7.3275L6.51562 7.32706ZM6.51083 8.01026V8.00765C4.66153 8.00765 2.81179 8.00721 0.962495 8.00939C0.879762 8.00939 0.729101 8.0255 0.724746 8.05206C0.697314 8.22711 0.685992 8.40869 0.7082 8.5833C0.712989 8.62031 0.87802 8.65906 0.969026 8.6595C4.58794 8.66342 8.20729 8.66298 11.8262 8.66255C11.942 8.66255 12.0622 8.67866 12.1728 8.6534C12.2364 8.63903 12.3039 8.56501 12.3331 8.50144C12.3605 8.44135 12.3318 8.35818 12.3413 8.28676C12.3714 8.06426 12.2769 8.00504 12.0587 8.00591C10.2094 8.01375 8.36013 8.01026 6.5104 8.01026H6.51083Z" fill="#FEFAE0"/>
<path d="M9.88023 6.26336C9.90505 5.77654 9.95774 5.29364 10.1776 4.84993C10.4628 4.27385 10.9035 3.91331 11.5745 3.92115C12.2029 3.92811 12.7206 4.46457 12.7341 5.10161C12.7476 5.733 12.2447 6.28644 11.6137 6.31779C11.1726 6.34 10.7563 6.40662 10.3945 6.69793C10.1868 6.86513 9.91507 6.72579 9.8811 6.45887C9.87283 6.39486 9.8798 6.32868 9.88023 6.2638V6.26336ZM10.5991 5.77567C10.9405 5.73213 11.2614 5.6925 11.5815 5.64983C11.824 5.61761 12.0026 5.45084 12.04 5.22702C12.0822 4.97273 11.9838 4.76502 11.7639 4.64484C11.5327 4.519 11.2349 4.57604 11.0141 4.80073C10.7485 5.07026 10.6466 5.41165 10.5991 5.77567Z" fill="#FEFAE0"/>
<path d="M3.14147 6.19273C3.14147 6.27938 3.14931 6.36691 3.14016 6.45269C3.10968 6.73093 2.831 6.86548 2.61372 6.68869C2.27234 6.41089 1.8774 6.33947 1.45807 6.32075C0.833219 6.29332 0.342917 5.82566 0.292842 5.21605C0.243202 4.61079 0.657738 4.05038 1.26866 3.94022C1.83516 3.83789 2.29629 4.04167 2.62852 4.51064C2.98384 5.0127 3.09531 5.5927 3.14147 6.1923V6.19273ZM2.396 5.75817C2.39687 5.41678 2.23054 4.99006 1.99017 4.78888C1.88349 4.69962 1.7472 4.62603 1.61265 4.59337C1.3061 4.51848 1.01567 4.73228 0.961237 5.04536C0.913339 5.32055 1.11538 5.60533 1.39972 5.64452C1.7263 5.68937 2.05505 5.72028 2.39557 5.7586L2.396 5.75817Z" fill="#FEFAE0"/>
<path d="M10.3345 1.62993C10.6305 1.62252 10.7769 1.73356 10.789 1.93081C10.8017 2.13547 10.6806 2.26392 10.4363 2.27742C9.75532 2.31443 9.21886 2.60356 8.82784 3.16571C8.70287 3.34511 8.51302 3.38169 8.358 3.27544C8.19907 3.16658 8.16815 2.985 8.29487 2.79864C8.79649 2.05883 9.50277 1.68044 10.3345 1.63036V1.62993Z" fill="#FEFAE0"/>
</svg>
