<svg width="18" height="20" viewBox="0 0 18 20" fill="none" xmlns="http://www.w3.org/2000/svg">
<g filter="url(#filter0_d_165_233)">
<path d="M16.3 7.8H1M12.05 1V4.4M5.25 1V4.4M5.08 18H12.22C13.6481 18 14.3622 18 14.9077 17.7221C15.3875 17.4776 15.7776 17.0875 16.0221 16.6077C16.3 16.0622 16.3 15.3481 16.3 13.92V6.78C16.3 5.35187 16.3 4.6378 16.0221 4.09232C15.7776 3.61251 15.3875 3.22241 14.9077 2.97793C14.3622 2.7 13.6481 2.7 12.22 2.7H5.08C3.65187 2.7 2.9378 2.7 2.39232 2.97793C1.91251 3.22241 1.52241 3.61251 1.27793 4.09232C1 4.6378 1 5.35187 1 6.78V13.92C1 15.3481 1 16.0622 1.27793 16.6077C1.52241 17.0875 1.91251 17.4776 2.39232 17.7221C2.9378 18 3.65187 18 5.08 18Z" stroke="#FEFAE0" stroke-width="2" stroke-linecap="round" stroke-linejoin="round" shape-rendering="crispEdges"/>
</g>
<defs>
<filter id="filter0_d_165_233" x="0" y="0" width="17.3" height="20" filterUnits="userSpaceOnUse" color-interpolation-filters="sRGB">
<feFlood flood-opacity="0" result="BackgroundImageFix"/>
<feColorMatrix in="SourceAlpha" type="matrix" values="0 0 0 0 0 0 0 0 0 0 0 0 0 0 0 0 0 0 127 0" result="hardAlpha"/>
<feOffset dy="1"/>
<feComposite in2="hardAlpha" operator="out"/>
<feColorMatrix type="matrix" values="0 0 0 0 0.156863 0 0 0 0 0.211765 0 0 0 0 0.0941176 0 0 0 1 0"/>
<feBlend mode="normal" in2="BackgroundImageFix" result="effect1_dropShadow_165_233"/>
<feBlend mode="normal" in="SourceGraphic" in2="effect1_dropShadow_165_233" result="shape"/>
</filter>
</defs>
</svg>
