<svg width="1200" height="550" viewBox="0 0 1200 550" fill="none" xmlns="http://www.w3.org/2000/svg">
<path d="M1199.03 423.736C1198.89 423.468 1198.76 423.208 1198.63 422.94V407.259C1198.75 407.336 1198.89 407.405 1199.01 407.481C1199.33 407.244 1199.67 406.999 1200 406.761C1199.54 406.095 1199.08 405.422 1198.63 404.755C1195.33 399.924 1192.03 395.093 1188.72 390.262L1194.17 387.413C1198.09 384.129 1198.58 384.021 1198.83 384.121L1199.03 377.69L1198.63 283.874V275.635H1199.1V0H0.280973V328.81C0.187316 328.772 0.0936578 328.741 0 328.711C0.0936578 328.841 0.187316 328.963 0.280973 329.093V331.781L5.46025 336.206C8.92559 340.969 12.2504 345.54 15.5659 350.095C15.3786 350.264 15.1913 350.432 14.9946 350.608C11.6698 349.238 8.33554 347.875 3.77441 345.999C9.31895 353.227 14.133 359.49 18.947 365.761C18.7128 365.921 18.4881 366.09 18.2539 366.251C14.6013 364.834 10.9486 363.418 7.28658 361.994C7.01497 362.277 6.74336 362.56 6.46239 362.843C12.4284 368.8 18.4038 374.757 24.3698 380.706L23.7329 381.372C19.7805 380.492 15.8375 379.611 10.6114 378.448C18.6941 386.694 25.9713 394.12 33.951 402.275C28.3034 401.233 23.8265 400.414 18.9001 399.503C28.6406 407.964 37.8003 415.919 46.9694 423.881C46.7352 424.119 46.5011 424.356 46.2576 424.593C42.3427 424.035 38.4278 423.476 34.5129 422.917C34.3911 423.192 34.2788 423.476 34.157 423.751C42.4083 429.654 50.6595 435.55 59.66 441.989C54.1623 442.334 49.7229 442.602 45.2835 442.877C45.1431 443.099 45.0026 443.314 44.8621 443.536C53.9282 447.525 62.9942 451.506 72.641 455.756C72.6504 455.687 72.6878 455.61 72.7347 455.518C78.9254 458.106 81.2294 457.884 92.1218 455.25C89.3214 462.325 86.7178 468.91 84.1234 475.487C91.0916 470.487 98.5374 470.081 106.648 471.015C114.028 471.865 121.502 472.156 128.929 472.723C129.379 472.753 129.81 473.013 130.25 473.167C130.269 473.534 130.287 473.894 130.306 474.261C120.088 475.969 109.861 477.676 99.6238 479.391C122.439 485.057 145.563 487.431 169.286 482.247C169.38 482.569 169.464 482.883 169.558 483.204C166.261 485.785 162.955 488.365 159.04 491.42C190.481 487.492 221.791 486.688 250.994 476.666C251.312 477.018 251.63 477.37 251.949 477.722C247.069 482.086 242.19 486.443 237.32 490.807C237.413 491.06 237.497 491.313 237.591 491.573C244.26 489.789 250.928 488.005 257.587 486.229C257.344 487.492 257.1 488.74 256.754 490.478C258.58 489.59 259.704 489.039 261.952 487.951C261.006 494.054 260.191 499.314 259.282 505.171C261.82 502.92 263.89 501.098 266.7 498.617C267.356 504.107 267.918 508.877 268.573 514.359C270.896 512.284 272.488 510.867 274.071 509.451C274.342 509.558 274.623 509.658 274.895 509.765C274.033 514.206 273.181 518.654 272.319 523.095C272.629 523.164 272.938 523.225 273.247 523.294C274.736 522 276.234 520.714 277.967 519.213C278.857 529.22 279.559 538.775 271.654 547.144C286.218 541.746 293.964 532.022 298.019 519.649C299.349 520.859 300.398 521.816 301.943 523.217C303.938 518.899 305.708 515.04 307.516 511.135C309.445 513.853 311.244 516.403 313.051 518.945C313.623 518.93 314.203 518.922 314.775 518.907C318.23 510.178 321.677 501.442 325.133 492.714C325.704 492.668 326.276 492.622 326.847 492.576C328.992 494.766 331.137 496.948 334.274 500.141C336.541 494.398 338.479 489.498 340.427 484.59C340.83 484.69 341.233 484.789 341.636 484.889C342.45 486.313 343.275 487.729 344.342 489.582C345.944 487.752 347.171 486.351 348.566 484.751C349.503 489.827 350.393 494.62 351.273 499.421C351.619 499.406 351.966 499.39 352.313 499.383C352.921 497.514 353.53 495.646 354.27 493.38C354.869 494.766 355.272 495.669 355.797 496.887C356.827 495.302 357.576 494.146 358.316 492.989C359.15 495.233 358.859 497.369 359.215 499.421C359.58 501.481 360.592 503.464 361.322 505.485C361.641 505.385 361.959 505.293 362.287 505.194C362.69 503.287 363.093 501.389 363.317 500.309C364.348 502.568 365.181 505.286 366.783 507.659C368.59 510.339 371.25 512.628 373.264 515.232C375.877 518.616 378.209 522.146 380.981 526.066C381.721 524.718 382.18 523.884 382.33 523.6C384.587 526.272 387.247 528.96 389.251 531.938C391.312 535.001 392.726 538.354 394.908 542.489C395.882 535.943 396.697 530.476 397.512 525.001L399.497 525.254C398.364 532.29 397.231 539.334 396.107 546.371C396.697 546.417 397.278 546.47 397.868 546.516C398.289 543.086 398.711 539.656 399.132 536.188C399.722 537.022 400.265 537.788 400.809 538.553C400.79 533.316 400.771 528.072 400.752 522.858C402.298 523.968 403.881 525.109 405.96 526.602C406.971 520.752 407.842 515.683 408.713 510.622C409.341 510.477 409.968 510.339 410.605 510.194C412.825 513.846 415.382 517.391 417.208 521.173C418.023 522.858 418.491 523.853 418.688 524.351C418.866 524.297 419.034 524.251 419.212 524.197C418.763 522.858 418.444 521.472 417.836 520.178C410.952 505.538 423.015 528.516 416.084 513.892C413.724 508.907 414.277 503.8 414.042 498.004C422.088 503.869 421.938 503.923 424.663 509.152C435.115 529.22 426.686 511.633 437.232 531.67C437.691 532.543 438.478 533.293 439.115 534.097C439.48 533.929 439.845 533.76 440.21 533.592C439.677 532.436 439.199 531.257 438.609 530.116C426.995 507.682 434.282 522.888 422.809 500.409C421.095 497.047 420.374 493.334 418.894 488.87C421.957 490.493 423.67 491.405 425.693 492.476C425.422 487.079 425.178 482.286 424.935 477.493C436.651 503.395 431.097 490.937 447.001 515.17C432.324 486.68 436.633 495.807 421.966 467.325C422.406 467.057 422.846 466.796 423.286 466.528C425.59 466.934 427.904 467.34 430.423 467.784C429.917 466.13 429.487 464.798 429.103 463.466C428.728 462.202 428.4 460.931 428.044 459.668C429.093 459.959 429.449 460.38 429.702 460.832C442.767 483.863 456.844 506.419 472.391 528.455C485.063 546.409 476.025 528.041 487.189 546.715C487.854 547.833 488.65 548.905 489.39 550C489.868 549.786 490.336 549.579 490.814 549.365C469.628 511.296 465.32 511.587 447.675 472.217C454.99 482.852 461.845 493.671 468.28 504.658C483.096 529.963 478.704 517.743 493.455 543.078C494.523 544.908 496.077 546.555 497.407 548.285C498.035 547.994 498.662 547.703 499.29 547.412C497.941 545.781 496.321 544.258 495.291 542.504C482.15 520.071 488.182 535.177 474.967 512.782C464.936 495.784 454.568 478.924 444.434 461.965C443.882 461.039 444.153 459.775 444.041 458.665L444.406 458.497C438.403 449.217 432.399 439.945 426.396 430.665C426.761 430.504 427.126 430.351 427.492 430.19C437.466 437.679 441.615 448.344 448.892 457.302C449.323 457.111 449.754 456.927 450.194 456.736C446.748 451.024 443.301 445.304 440.604 440.841C445.09 444.868 449.342 449.094 453.435 453.451C453.238 453.596 453.042 453.734 452.845 453.872C453.154 454.201 453.463 454.531 453.772 454.86C454.016 454.768 454.259 454.684 454.512 454.592C472.803 474.292 487.901 496.687 506.052 517.383C506.089 515.921 505.378 514.833 504.581 513.785C494.626 500.684 484.473 487.676 474.836 474.422C472.888 471.75 472.869 468.144 471.96 464.966C472.447 464.767 472.944 464.568 473.431 464.377C477.402 467.11 482.235 469.323 485.204 472.654C497.407 486.336 509.03 500.363 520.915 514.236C521.421 514.826 522.376 515.147 523.126 515.599C523.285 515.454 523.435 515.308 523.594 515.163C513.263 503.15 502.933 491.144 492.603 479.131C493.174 478.656 493.755 478.182 494.326 477.699C495.796 478.526 497.585 479.139 498.681 480.218C512.149 493.449 525.505 506.756 538.916 520.017C541.323 522.398 543.89 524.672 546.372 527C546.774 526.739 547.186 526.479 547.589 526.226C546.662 525.17 545.791 524.075 544.789 523.072C529.916 508.31 515.09 493.51 500.095 478.832C494.963 473.81 494.963 468.029 494.775 461.735C506.951 473.427 518.508 484.797 530.422 495.891C542.194 506.855 553.808 517.957 567.473 527.467C542.269 504.834 517.544 481.903 494.382 457.899C494.729 457.662 495.075 457.417 495.431 457.18C518.864 477.286 542.297 497.392 565.731 517.498C566.124 517.207 566.508 516.924 566.901 516.633C566.499 516.158 566.161 515.622 565.684 515.209C555.756 506.564 545.772 497.966 535.872 489.299C523.21 478.212 510.463 467.179 498.091 455.878C494.42 452.525 491.891 448.336 488.847 444.531C489.175 444.263 489.512 443.995 489.84 443.727C491.769 444.845 493.97 445.756 495.581 447.134C498.934 449.99 501.903 453.137 505.143 456.085C531.199 479.828 558.491 502.568 587.796 523.661C588.93 524.473 590.138 525.216 591.318 525.989C591.571 525.736 591.824 525.484 592.077 525.231C591.056 524.343 590.091 523.417 589.014 522.574C573.364 510.324 557.292 498.403 542.148 485.746C528.427 474.277 515.38 462.225 502.708 449.967C497.379 444.814 492.631 439.432 485.887 435.313C485.644 435.167 485.419 434.991 485.185 434.83C486.281 434.202 487.414 433.636 488.603 433.146C501.107 442.563 511.269 453.872 523.285 463.68C538.289 475.931 553.939 487.645 569.374 499.536C584.743 511.38 600.187 523.156 615.594 534.963C615.969 534.633 616.343 534.304 616.718 533.975C582.664 505.745 544.377 481.038 512.215 451.231C512.496 450.978 512.776 450.725 513.057 450.473C530.74 462.815 548.432 475.15 566.115 487.492C566.48 487.163 566.836 486.826 567.192 486.497C566.283 485.792 565.412 485.05 564.476 484.383C541.342 467.876 518.096 451.468 495.159 434.784C493.979 433.927 492.893 432.985 491.844 432.005C492.237 431.89 492.621 431.768 493.024 431.668C493.848 431.454 494.654 431.232 495.459 431.002C501.603 435.359 507.738 439.708 513.882 444.064C514.125 443.85 514.359 443.628 514.603 443.413L499.964 431.599C500.264 431.331 500.564 431.063 500.863 430.795C536.088 453.926 571.322 477.064 606.547 500.194C606.949 499.804 607.343 499.406 607.746 499.015C607.258 498.678 606.771 498.334 606.284 497.989C608.635 496.542 610.986 495.087 613.356 493.64C613.496 493.556 613.637 493.472 613.777 493.38C617.889 495.853 622.019 498.295 626.177 500.715C626.028 500.814 625.868 500.914 625.718 501.013C625.213 501.343 624.913 501.886 623.752 503.188C625.559 502.629 626.308 502.545 626.824 502.216C627.133 502.016 627.442 501.817 627.751 501.626C629.343 502.545 630.935 503.456 632.537 504.367C628.163 507.376 623.789 510.385 619.425 513.402C619.724 513.685 620.024 513.968 620.324 514.259C624.847 511.227 629.371 508.188 633.904 505.148C635.777 506.205 637.66 507.261 639.552 508.302C635.29 511.304 631.029 514.305 626.767 517.307C625.728 518.042 624.81 518.884 623.836 519.672C624.154 519.979 624.473 520.277 624.791 520.584C625.934 519.864 627.123 519.19 628.219 518.417C632.565 515.362 636.901 512.292 641.237 509.237C642.942 510.171 644.656 511.105 646.37 512.031C644.768 511.021 643.176 510.01 641.575 508.999C643.27 507.805 644.956 506.61 646.651 505.431C646.801 505.324 646.951 505.217 647.1 505.11C650.603 507.1 654.106 509.091 657.618 511.089C646.155 519.994 634.597 528.807 623.096 537.681C623.499 538.033 623.901 538.385 624.304 538.73C636.011 529.856 647.719 520.982 659.426 512.108L665.111 515.339C665.457 514.925 665.804 514.52 666.151 514.106C664.371 513.088 662.591 512.069 660.812 511.051C664.296 508.41 667.771 505.776 671.255 503.134L701.3 519.052C701.385 518.945 701.469 518.83 701.553 518.723C694.37 514.68 687.177 510.63 679.993 506.587C680.489 506.457 680.864 506.22 681.173 505.937C691.092 497.17 700.926 488.334 710.844 479.567C713.232 480.502 715.677 481.359 718.074 482.286C718.271 481.964 718.468 481.642 718.664 481.321C716.501 480.348 714.337 479.368 712.174 478.396C717.784 473.45 723.413 468.511 729.126 463.642C732.722 460.572 736.019 457.226 739.447 453.987C742.098 454.89 744.758 455.794 747.408 456.69C747.642 456.276 747.886 455.87 748.12 455.457C746.724 454.822 745.376 454.071 743.915 453.558C742.941 453.221 741.966 452.884 740.983 452.54C745.947 447.977 751.304 443.75 758.347 440.994C758.806 440.772 759.265 440.542 759.724 440.32C760.473 439.417 761.223 438.505 761.962 437.602C762.15 438.015 762.337 438.437 762.524 438.85C762.262 439.118 761.991 439.378 761.728 439.646L761.616 439.769L761.522 440.106C762.478 440.121 763.423 440.129 764.903 440.152C761.822 444.37 759.527 448.551 756.118 451.996C742.098 466.153 727.73 480.08 713.532 494.123C712.539 495.11 711.837 496.289 710.994 497.384C711.116 497.43 711.228 497.476 711.35 497.522C737.799 472.723 764.238 447.923 790.687 423.131C791.202 423.483 791.708 423.836 792.223 424.188C774.981 441.545 757.729 458.902 740.487 476.26C740.796 476.467 741.114 476.681 741.423 476.888C767.544 452.103 793.666 427.312 819.787 402.527L820.873 403.209C812.847 417.228 800.718 429.142 790.079 441.851C797.084 435.986 803.406 429.746 809.662 423.468C812.154 420.964 815.226 419.877 819.141 420.49L819.056 420.421C820.873 418.575 822.69 416.73 824.507 414.877C824.929 415.222 825.35 415.559 825.781 415.903C823.177 420.091 820.761 424.364 817.932 428.437C812.931 435.627 808.183 442.985 802.413 449.745C792.87 460.924 782.586 471.689 772.649 482.645C772.162 483.189 772.021 483.939 771.722 484.59C773.051 484.506 773.604 484.115 774.035 483.641C783.691 473.144 793.488 462.731 802.9 452.088C807.621 446.759 811.91 441.147 815.881 435.428C819.721 429.892 822.503 423.858 826.53 418.43C829.012 415.092 832.946 412.473 836.233 409.533C836.514 409.74 836.804 409.954 837.085 410.161C835.774 411.7 834.472 413.247 833.067 414.893C836.795 417.971 829.359 419.839 830.838 422.955C831.7 422.633 832.59 422.312 834.229 421.707C832.824 423.92 830.717 425.673 831.044 427.021C832.037 431.094 829.162 432.388 825.64 434.003C818.185 437.426 815.759 439.639 814.373 443.168C818.925 440.902 823.561 438.597 828.984 435.902C822.231 453.122 821.089 460.15 823.852 468.136C826.97 466.291 829.902 464.561 833.433 462.463C829.705 470.311 826.98 477.768 830.173 485.654C830.426 470.073 839.436 452.142 849.148 448.405C848.643 454.37 838.696 458.298 843.323 464.002C842.115 465.579 841.609 466.245 840.897 467.172C840.495 466.521 840.101 465.87 839.492 464.882C838.696 470.862 837.994 476.091 837.273 481.451C837.554 481.52 838.406 481.734 839.333 481.972C837.029 485.586 831.878 487.653 832.187 491.879C832.599 492.071 833.011 492.262 833.414 492.453C835.746 490.356 838.088 488.258 841.234 485.425C840.523 491.711 839.942 496.925 839.23 503.188C842.162 501.036 844.128 499.589 847.238 497.315C843.735 510.446 845.14 522.161 851.181 533.462C847.819 522.858 845.337 512.223 848.858 500.899C849.636 509.872 850.366 518.424 851.106 526.977C851.808 526.969 852.511 526.954 853.213 526.946C852.885 520.063 852.548 513.172 852.22 506.289C852.829 506.258 853.438 506.22 854.047 506.189L855.105 521.87C857.662 517.735 859.104 513.601 860.874 509.566C861.305 508.593 862.776 507.345 863.834 507.307C864.874 507.269 866.016 508.578 867.056 509.351C867.552 509.727 867.899 510.232 868.639 511.028C870.437 507.009 872.048 503.425 873.949 499.168C875.785 501.213 876.909 502.468 878.332 504.061C880.805 498.41 883.09 493.181 885.759 487.056C886.939 490.095 887.698 492.063 888.466 494.038C888.831 494.038 889.206 494.038 889.571 494.038C892.999 487.53 896.418 481.022 900.239 473.764C901.129 477.661 901.822 480.67 902.515 483.671C902.88 483.694 903.255 483.717 903.62 483.74C907.413 475.777 911.197 467.815 914.99 459.852C916.123 464.254 917.247 468.649 918.596 473.925C921.602 470.992 923.635 469.009 925.086 467.6C928.13 477.439 931.249 487.484 934.621 498.387C936.953 495.217 938.62 492.943 939.931 491.159C942.46 496.871 944.942 502.468 947.414 508.057C949.241 506.947 949.793 505.937 950.468 504.98C951.076 504.114 951.816 503.303 953.071 501.771C952.949 518.141 954.551 533.14 965.631 546.233C963.626 532.796 967.916 523.447 973.254 515.515C974.36 517.467 975.446 519.389 976.551 521.357C979.492 514.887 982.32 508.67 985.608 501.442C988.652 505.684 990.946 508.861 993.634 512.613C995.273 505.852 996.744 499.819 998.392 493.028C1001.01 496.703 1003.1 499.658 1005.53 503.073C1006.77 500.554 1007.64 498.77 1008.68 496.657C1013.21 505.087 1029.27 515.905 1037.69 516.51C1036.89 515.224 1036.11 513.93 1035.32 512.636C1042.81 517.299 1049.51 522.536 1059.4 524.297C1057.89 521.992 1056.58 520.002 1055.06 517.697C1057.68 518.761 1059.64 519.565 1061.88 520.476C1061.91 518.991 1061.93 518.133 1061.94 517.689C1075.87 524.496 1089.77 531.28 1103.67 538.071C1104.13 537.681 1104.58 537.298 1105.04 536.907C1097.83 530.859 1093.93 523.585 1092.07 515.392C1093.19 515.63 1094.02 515.806 1095.27 516.074C1093.3 511.158 1091.45 506.572 1089.41 501.48C1091.85 502.185 1093.62 502.698 1096.15 503.433C1094.27 498.326 1092.61 493.824 1090.83 488.993C1093.03 489.307 1094.5 489.513 1096.86 489.85C1093.85 482.753 1091.05 476.145 1088.17 469.369C1090.5 470.449 1092.54 471.39 1094.58 472.332C1094.88 472.095 1095.19 471.85 1095.49 471.612C1092.85 466.199 1090.2 460.778 1087.57 455.365C1087.76 455.22 1087.96 455.082 1088.14 454.936C1092.32 458.964 1096.49 462.991 1101.55 467.861C1101.63 463.81 1101.69 460.947 1101.75 457.754C1110.22 464.515 1114.25 473.771 1124.56 480.134C1123.73 476.803 1123.2 474.683 1122.67 472.554C1123 472.432 1123.34 472.301 1123.68 472.179C1130.03 478.817 1136.38 485.455 1143.09 492.476C1143.81 490.042 1144.33 488.288 1144.85 486.535C1145.2 486.474 1145.56 486.405 1145.9 486.344C1153.5 500.914 1161.09 515.477 1168.69 530.047C1169.19 529.963 1169.68 529.879 1170.19 529.787C1169.97 515.301 1169.76 500.807 1169.55 486.581C1171.58 488.105 1173.92 489.858 1176.8 492.017C1176 484.207 1175.26 477.14 1174.44 469.147C1178.39 472.271 1181.55 474.767 1185.6 477.975C1183.39 469.453 1181.43 461.957 1179.17 453.283C1184.12 455.832 1187.89 457.762 1191.51 459.622C1189.33 451.047 1187.2 442.64 1184.84 433.368C1189.64 436.055 1193.78 438.375 1198.6 441.078C1198.74 441.147 1198.86 441.224 1198.99 441.292C1198.86 441.009 1198.74 440.741 1198.6 440.458V423.491C1198.74 423.575 1198.87 423.652 1199 423.736H1199.03ZM25.9526 354.184C26.1399 354.192 26.3272 354.199 26.5145 354.215L29.1088 356.435C27.9943 356.175 26.8517 355.899 25.6997 355.631C25.784 355.149 25.8683 354.674 25.9526 354.192V354.184ZM24.5383 385.247C37.2196 385.116 49.3108 387.015 60.3156 392.283C48.393 389.94 36.461 387.589 24.5383 385.247ZM80.8829 453.168C79.0753 454.224 76.3779 454.27 73.69 454.324C76.0127 451.767 81.6228 446.912 84.2358 444.24C84.3014 444.217 84.3576 444.194 84.4231 444.179C84.957 444.585 85.4908 444.991 86.0247 445.396C84.3857 448.068 83.5147 451.621 80.8829 453.16V453.168ZM482.572 432.572C480.923 430.857 479.481 428.904 477.833 427.181C478.17 426.975 478.498 426.76 478.835 426.554C480.764 427.702 482.619 428.904 484.426 430.144C483.836 430.979 483.218 431.783 482.572 432.572ZM486.693 426.592C485.747 425.551 484.792 424.517 483.789 423.514C483.995 423.391 484.192 423.269 484.398 423.146C485.419 423.874 486.44 424.594 487.47 425.321C487.208 425.742 486.955 426.171 486.693 426.592ZM490.486 420.941C486.637 418.323 482.787 415.704 478.929 413.093C477.524 412.144 476.55 410.781 475.37 409.602C475.725 409.296 476.081 408.989 476.437 408.683C481.991 411.669 487.489 414.724 492.93 417.84C492.078 418.851 491.263 419.885 490.477 420.941H490.486ZM732.254 394.802C735.71 392.781 739.972 391.678 743.952 390.254H745.067C745.198 390.514 745.329 390.775 745.46 391.035C744.027 391.77 742.603 392.505 740.983 393.332C741.76 393.63 742.379 393.868 743.203 394.182C742.173 394.84 741.283 395.414 739.803 396.356C742.36 396.012 744.083 395.782 745.338 395.606C744.514 397.022 743.708 398.408 742.856 399.871C738.342 398.753 733.828 397.635 729.313 396.517C730.297 395.943 731.271 395.361 732.245 394.787L732.254 394.802ZM748.541 407.412C749.459 407.221 750.386 407.029 751.529 406.792C750.19 412.152 748.897 417.343 747.605 422.503C746.996 422.35 746.387 422.197 745.778 422.052C744.57 415.429 743.287 408.844 748.335 402.635C748.925 402.78 749.506 402.918 750.096 403.063C749.178 404.25 748.27 405.452 747.333 406.631C747.736 406.892 748.139 407.16 748.541 407.42V407.412ZM747.333 423.575C747.071 424.639 746.799 425.696 746.537 426.76C746.397 425.597 746.2 424.433 745.994 423.269C746.443 423.368 746.884 423.476 747.333 423.575ZM733.959 405.835C726.298 407.389 718.14 407.55 711.415 411.593C711.059 411.807 710.085 411.355 709.411 411.21L709.57 411.325C709.149 411.784 708.765 412.282 708.353 412.749C706.835 412.374 705.328 411.998 703.81 411.623C707.978 409.135 712.155 406.647 716.342 404.174C717.587 404.288 718.842 404.365 720.088 404.472C720.163 404.112 720.229 403.745 720.303 403.385C719.648 403.27 718.992 403.132 718.337 402.994C721.409 401.18 724.481 399.373 727.562 397.558C732.432 398.737 737.293 399.924 742.154 401.103C741.854 401.616 741.554 402.137 741.236 402.68C742.669 402.52 743.961 402.213 745.16 401.831C746.087 402.053 747.005 402.282 747.933 402.504C743.006 403.691 738.52 404.893 733.968 405.82L733.959 405.835ZM532.754 438.927C532.594 439.041 532.435 439.164 532.276 439.279C529.644 437.357 527.022 435.428 524.39 433.506C526.919 432.135 529.401 430.719 531.798 429.226C564.476 446.537 597.143 463.849 629.821 481.152C626.505 483.289 623.19 485.432 619.874 487.569C590.128 470.533 560.298 453.436 530.187 436.186C531.302 437.372 532.033 438.146 532.763 438.919L532.754 438.927ZM522.929 428.828L526.872 426.615C527.855 427.135 528.829 427.656 529.813 428.169C528.258 429.249 526.694 430.305 525.121 431.362C522.414 429.44 519.707 427.518 517.01 425.597C518.34 424.9 519.642 424.188 520.906 423.445C522.208 424.134 523.51 424.823 524.802 425.512C523.847 426.301 522.891 427.09 521.946 427.886C522.273 428.2 522.601 428.514 522.929 428.82V428.828ZM521.786 430.803L524.418 431.837C524.025 432.105 523.622 432.373 523.229 432.641C522.601 432.181 521.983 431.729 521.356 431.27C521.496 431.117 521.646 430.956 521.786 430.803ZM532.426 423.506L541.323 418.522C539.319 420.826 537.006 422.833 534.571 424.716C533.849 424.31 533.138 423.912 532.416 423.506H532.426ZM631.919 482.27L644.338 488.847C640.9 491.129 637.416 493.38 633.942 495.631C629.839 493.28 625.728 490.922 621.616 488.572C625.053 486.474 628.491 484.368 631.919 482.27ZM601.255 407.006C603.756 407.856 606.256 408.706 608.748 409.556C606.266 411.378 603.784 413.193 601.292 415.015C597.181 413.361 593.069 411.7 588.948 410.046C591.028 408.354 593.088 406.647 595.12 404.924C596.834 405.506 598.548 406.088 600.262 406.67C598.427 408.522 596.572 410.375 594.699 412.213C596.844 410.444 599.035 408.714 601.255 407.006ZM637.229 411.103C642.642 413.17 648.028 415.222 653.394 417.274C652.617 417.84 651.83 418.399 651.062 418.974C652.186 418.591 653.216 418.108 654.19 417.58C659.051 419.433 663.903 421.286 668.735 423.131C667.312 424.126 665.898 425.122 664.474 426.117C653.769 422.427 643.064 418.721 632.378 415C633.988 413.698 635.609 412.404 637.229 411.103ZM635.468 408.415C636.283 407.872 637.088 407.32 637.903 406.777C638.081 406.93 638.25 407.083 638.428 407.236C637.8 407.764 637.182 408.3 636.555 408.829C636.189 408.691 635.824 408.545 635.459 408.408L635.468 408.415ZM722.017 413.637C720.8 414.234 719.695 414.778 718.627 415.298C716.613 414.801 714.6 414.303 712.586 413.805C715.808 411.96 719.507 410.636 722.963 409.043C723.197 409.38 723.432 409.717 723.675 410.061C722.429 410.873 721.184 411.677 719.863 412.534C720.744 412.986 721.371 413.308 722.027 413.645L722.017 413.637ZM716.389 416.401C716.314 416.439 716.229 416.478 716.154 416.516C716.304 416.723 716.445 416.929 716.595 417.136C717.222 417.059 717.85 416.975 718.524 416.891C719.217 417.052 719.91 417.213 720.603 417.373C718.693 418.392 717.063 419.257 714.946 420.375C717.269 420.306 718.608 420.268 720.519 420.206C718.496 421.416 717.016 422.304 714.928 423.568C717.082 423.368 718.346 423.246 720.865 423.009C717.943 424.387 716.145 425.237 713.654 426.408C716.548 426.607 718.552 426.737 720.547 426.875C720.678 427.166 720.809 427.465 720.94 427.756C715.415 429.624 710.076 432.173 704.325 433.184C700.158 433.919 696.121 434.547 692.318 435.703C689.172 434.616 686.025 433.529 682.868 432.449C692.075 426.622 701.291 420.811 710.544 415.038C712.492 415.49 714.44 415.942 716.389 416.393V416.401ZM662.432 474.108C659.388 472.47 656.335 470.839 653.282 469.216C655.914 467.616 658.536 466.008 661.168 464.408C666.188 466.682 671.208 468.956 676.247 471.214C672.585 472.363 668.829 473.534 664.521 474.882C665.261 472.294 665.738 470.64 665.991 469.767C664.802 471.099 663.65 472.592 662.442 474.108H662.432ZM597.715 419.701C598.792 418.935 599.86 418.177 600.937 417.412C604.87 418.989 608.813 420.559 612.747 422.136C612.653 422.205 612.559 422.266 612.456 422.335C612.775 422.633 613.093 422.932 613.412 423.231C613.665 423.055 613.927 422.886 614.18 422.71C615.566 423.269 616.952 423.82 618.329 424.371C617.767 424.854 617.205 425.329 616.643 425.811C617.224 426.293 617.814 426.768 618.394 427.25C619.022 426.561 619.612 425.842 620.221 425.137C629.877 429.027 639.524 432.924 649.17 436.836C645.714 439.256 642.258 441.683 638.812 444.102L639.683 445.021C643.251 442.433 646.857 439.891 650.5 437.38C652.205 438.069 653.919 438.766 655.623 439.455C652.083 441.859 648.543 444.263 645.003 446.667C646.454 446.974 647.372 446.667 648.121 446.185C651.165 444.179 654.172 442.127 657.187 440.09C659.576 441.063 661.964 442.027 664.352 443C660.194 445.687 656.017 448.359 651.84 451.032C632.096 441.928 612.494 432.618 593.2 422.886C594.128 422.228 595.064 421.562 595.991 420.903C606.79 425.665 617.589 430.435 628.388 435.198C628.65 434.8 628.912 434.402 629.174 434.003C618.685 429.218 608.158 424.502 597.677 419.709L597.715 419.701ZM674.036 423.491C673.512 423.284 672.997 423.085 672.472 422.878C678.897 418.775 685.388 414.732 691.897 410.712C693.396 411.057 694.903 411.409 696.402 411.754C689.893 416.171 683.393 420.597 676.884 425.015C676.921 424.953 676.959 424.892 676.996 424.831C676.013 424.379 675.057 423.874 674.046 423.476L674.036 423.491ZM675.741 425.796C674.374 426.722 673.006 427.656 671.639 428.583C669.897 427.978 668.145 427.381 666.403 426.776C667.874 425.819 669.354 424.869 670.833 423.92C672.472 424.548 674.111 425.168 675.741 425.796ZM675.526 463.42C675.975 463.627 676.434 463.833 676.884 464.048C675.994 465.495 675.011 467.08 673.933 468.818C670.131 467.072 666.319 465.334 662.517 463.588C664.437 462.417 666.347 461.245 668.267 460.082C670.534 461.131 672.8 462.172 675.067 463.213C674.945 463.382 674.823 463.558 674.701 463.726C674.954 463.634 675.235 463.535 675.526 463.428V463.42ZM668.426 456.169C667.686 456.651 666.947 457.126 666.216 457.609C665.148 457.126 664.09 456.636 663.022 456.146C665.841 454.316 668.661 452.486 671.48 450.656C673.081 449.715 674.673 448.765 676.275 447.823C676.893 448.076 677.521 448.329 678.139 448.581C676.209 449.508 674.271 450.427 672.341 451.353C671.058 452.984 670.197 455.028 668.436 456.177L668.426 456.169ZM660.821 455.151C658.18 453.941 655.548 452.731 652.917 451.522C653.198 451.345 653.469 451.162 653.75 450.986C657.674 448.482 661.608 445.978 665.532 443.475C668.38 444.631 671.217 445.779 674.065 446.935C669.738 449.738 665.167 452.348 660.821 455.151ZM676.134 445.557C673.315 444.401 670.506 443.252 667.687 442.096C671.967 439.378 676.237 436.66 680.527 433.942C683.384 434.915 686.249 435.887 689.106 436.859C686.605 437.893 684.226 439.248 681.997 441.147C680.162 442.709 678.186 444.156 676.134 445.549V445.557ZM675.61 435.665C672.594 437.663 669.56 439.639 666.516 441.614C664.128 440.634 661.73 439.654 659.342 438.674C662.001 436.898 664.689 435.137 667.452 433.467C668.857 432.618 670.262 431.775 671.667 430.925C674.102 431.752 676.528 432.579 678.963 433.406C677.848 434.157 676.743 434.915 675.619 435.665H675.61ZM669.344 430.144C665.476 432.771 661.608 435.397 657.749 438.023C656.045 437.326 654.34 436.63 652.636 435.933C656.401 433.368 660.194 430.834 664.024 428.33C665.804 428.935 667.574 429.532 669.344 430.137V430.144ZM651.268 435.382C641.5 431.385 631.731 427.388 621.963 423.399C622.066 423.315 622.15 423.215 622.262 423.131C624.885 421.033 627.498 418.92 630.12 416.822C640.816 420.459 651.521 424.096 662.198 427.725C658.555 430.282 654.912 432.832 651.268 435.389V435.382ZM620.296 422.71C619.031 422.197 617.767 421.676 616.502 421.156C619.462 419.173 622.412 417.182 625.372 415.199C626.262 415.498 627.151 415.804 628.041 416.102C625.456 418.308 622.881 420.505 620.296 422.71ZM613.065 434.608C625.559 440.366 638.044 446.131 650.528 451.897C648.665 453.091 646.791 454.278 644.928 455.472C637.351 451.95 629.783 448.398 622.272 444.784C610.405 439.072 598.595 433.276 586.813 427.449C588.199 426.462 589.585 425.482 590.981 424.494C598.352 427.855 605.713 431.224 613.065 434.616V434.608ZM651.587 452.387C654.219 453.604 656.841 454.814 659.473 456.024C659.398 456.077 659.323 456.123 659.248 456.169C657.506 457.333 655.783 458.512 654.069 459.699C651.409 458.474 648.749 457.241 646.089 456.008C647.906 454.791 649.742 453.581 651.587 452.379V452.387ZM661.655 457.027C662.713 457.517 663.781 458.007 664.839 458.497C662.994 459.699 661.14 460.901 659.285 462.103C658.218 461.613 657.159 461.123 656.092 460.633C657.946 459.431 659.801 458.229 661.646 457.027H661.655ZM675.788 469.668C676.865 469.721 677.624 469.759 678.373 469.798C678.392 470.043 678.41 470.288 678.429 470.533C678.279 470.579 678.129 470.625 677.979 470.671C677.249 470.334 676.518 469.997 675.788 469.668ZM677.455 462.723C677.567 462.685 677.68 462.639 677.773 462.608C677.736 462.677 677.689 462.746 677.652 462.815C677.586 462.784 677.521 462.754 677.455 462.731V462.723ZM675.928 462.026C673.859 461.085 671.789 460.143 669.709 459.201C671.854 457.899 673.99 456.583 676.134 455.281C677.848 454.24 679.937 453.627 682.831 452.394C680.134 456.154 677.933 459.216 675.919 462.019L675.928 462.026ZM676.603 452.425C676.397 452.157 676.191 451.881 675.985 451.613L679.787 449.255C680.911 449.715 682.044 450.166 683.168 450.626C680.873 451.024 678.644 451.537 676.593 452.425H676.603ZM681.932 447.923C682.569 447.525 683.206 447.134 683.842 446.736C683.683 446.514 683.533 446.285 683.374 446.062C682.456 446.499 681.538 446.943 680.621 447.379C679.909 447.088 679.197 446.797 678.476 446.507C683.252 443.658 688.048 440.833 692.974 438.169C694.838 438.804 696.702 439.432 698.556 440.067C698.013 440.45 697.47 440.833 696.926 441.216C697.02 441.346 697.114 441.484 697.217 441.614C698.041 441.277 698.875 440.933 699.877 440.519C700.392 440.695 700.907 440.871 701.422 441.04C700.71 441.828 700.092 442.51 699.343 443.344C700.935 443.367 701.881 443.375 703.379 443.398C699.006 448.283 693.012 449.186 687.083 450.029C685.369 449.324 683.655 448.627 681.941 447.923H681.932ZM700.654 438.59C699.024 438.031 697.404 437.464 695.774 436.905C697.816 436.346 700.27 436.308 702.452 435.925C702.602 436.285 702.761 436.645 702.911 437.005C702.162 437.533 701.413 438.061 700.654 438.59ZM703.08 439.202C703.024 439.263 702.977 439.317 702.921 439.378C702.874 439.363 702.827 439.348 702.78 439.332C702.883 439.294 702.977 439.256 703.08 439.21V439.202ZM709.252 462.149C709.495 461.896 709.758 461.659 710.001 461.414C710.572 461.628 711.153 461.835 711.724 462.042C708.868 466.207 704.419 469.446 701.169 473.412C700.073 472.922 698.987 472.432 697.891 471.942C701.947 468.948 705.768 465.724 709.242 462.149H709.252ZM711.453 459.997C712.268 459.224 713.092 458.466 713.897 457.693C713.588 458.68 713.167 459.607 712.68 460.495C712.268 460.334 711.865 460.166 711.453 459.997ZM681.22 431.89C678.86 431.079 676.49 430.259 674.13 429.448C683.262 423.935 692.403 418.438 701.572 412.971C703.276 413.369 704.99 413.767 706.695 414.158C698.219 420.084 689.799 426.071 681.22 431.898V431.89ZM698.519 410.322C698.088 410.215 697.666 410.107 697.236 410.008C696.233 409.763 695.231 409.525 694.22 409.28C697.732 407.114 701.253 404.947 704.775 402.788C706.133 402.964 707.5 403.132 708.858 403.293C705.412 405.636 701.956 407.979 698.509 410.329L698.519 410.322ZM689.968 408.247C684.713 406.983 679.459 405.735 674.205 404.487C677.483 402.313 680.761 400.139 684.039 397.964C688.816 399.932 693.845 401.096 698.968 401.938C695.971 404.043 692.974 406.141 689.968 408.247ZM687.804 409.77C681.969 413.859 676.144 417.948 670.309 422.036C665.579 420.183 660.84 418.33 656.11 416.47C656.625 416.148 657.131 415.811 657.637 415.482C662.367 412.343 667.096 409.204 671.826 406.065C677.165 407.305 682.484 408.538 687.795 409.77H687.804ZM630.223 414.25C629.474 413.989 628.715 413.729 627.966 413.469C629.83 412.213 631.703 410.957 633.567 409.709C634.026 409.885 634.485 410.061 634.944 410.237C633.37 411.577 631.797 412.917 630.233 414.257L630.223 414.25ZM626.252 412.871C622.028 411.394 617.804 409.908 613.58 408.423C615.528 407.045 617.486 405.674 619.443 404.311C623.592 405.896 627.713 407.466 631.816 409.035C629.961 410.314 628.107 411.593 626.252 412.871ZM623.695 414.632C620.811 416.615 617.926 418.591 615.041 420.566C611.108 418.966 607.165 417.373 603.222 415.788C605.797 413.959 608.364 412.129 610.939 410.299C615.191 411.746 619.443 413.185 623.695 414.632ZM599.045 416.654C598.024 417.404 596.994 418.154 595.973 418.905C592.133 417.144 588.312 415.367 584.5 413.568C585.277 412.956 586.045 412.343 586.813 411.731C587.253 411.914 587.675 412.106 588.115 412.282C591.758 413.729 595.392 415.199 599.035 416.654H599.045ZM594.306 420.145C593.425 420.796 592.554 421.447 591.674 422.097C588.021 420.245 584.378 418.376 580.744 416.493C581.39 416.003 582.046 415.513 582.692 415.023C586.569 416.73 590.438 418.438 594.315 420.153L594.306 420.145ZM589.398 423.774C589.323 423.835 589.239 423.889 589.164 423.95C587.927 424.869 586.822 425.895 585.652 426.875C581.877 425.007 578.103 423.131 574.328 421.255C575.546 420.367 576.763 419.487 577.972 418.583C581.784 420.314 585.595 422.044 589.398 423.774ZM643.523 456.368C641.303 457.785 639.093 459.201 636.882 460.618C614.236 448.842 591.43 437.273 569.346 424.808C570.133 424.264 570.91 423.713 571.687 423.162C595.626 434.248 619.528 445.381 643.523 456.368ZM644.74 456.919C647.419 458.144 650.107 459.37 652.795 460.595C650.519 462.179 648.252 463.772 645.986 465.372C643.401 464.017 640.816 462.662 638.222 461.314C640.395 459.852 642.567 458.382 644.74 456.919ZM654.771 461.498C655.839 461.988 656.906 462.478 657.974 462.96C655.502 464.568 653.029 466.169 650.556 467.776C649.554 467.248 648.552 466.72 647.55 466.192C649.957 464.63 652.364 463.068 654.771 461.506V461.498ZM652.729 469.56C655.951 471.099 659.182 472.623 662.423 474.139C660.503 476.543 658.424 478.986 655.783 480.923C652.673 483.197 649.479 485.402 646.248 487.569C642.258 485.325 638.269 483.074 634.279 480.831C640.423 477.071 646.576 473.32 652.729 469.56ZM646.229 489.85C647.616 490.585 649.002 491.32 650.388 492.055L640.076 499.153C638.587 498.303 637.107 497.453 635.618 496.603C639.158 494.352 642.689 492.109 646.22 489.858L646.229 489.85ZM648.149 488.633C652.476 485.876 656.813 483.128 661.14 480.371C661.383 480.218 661.674 480.035 661.777 479.812C664.099 474.912 670.056 476.099 674.168 474.216C674.42 474.529 674.673 474.843 674.936 475.165C667.331 480.402 659.726 485.639 652.121 490.869C650.8 490.126 649.47 489.376 648.149 488.633ZM681.155 473.412C682.662 474.085 684.18 474.759 685.697 475.433C684.039 476.803 682.213 477.998 680.527 479.215C673.343 484.399 666.113 489.536 658.864 494.659C657.169 493.701 655.464 492.744 653.769 491.787C662.826 485.708 671.948 479.59 681.155 473.412ZM682.288 472.654C684.077 471.452 685.884 470.242 687.682 469.032C688.488 469.4 689.293 469.775 690.089 470.142C689.237 471.911 688.01 473.366 686.605 474.644C685.163 473.978 683.721 473.32 682.278 472.654H682.288ZM689.19 468.021C689.855 467.577 690.511 467.141 691.166 466.697C691.054 467.409 690.886 468.067 690.679 468.695C690.183 468.473 689.687 468.251 689.19 468.021ZM696.383 473.036C698.303 473.917 700.214 474.805 702.124 475.686C700.298 477.186 698.462 478.672 696.617 480.165C695.896 479.162 694.941 478.488 693.864 477.99C692.918 477.554 691.972 477.117 691.026 476.681C692.852 475.502 694.632 474.292 696.383 473.044V473.036ZM701.263 473.45C705.468 469.905 709.683 466.36 713.888 462.807C714.75 463.114 715.602 463.42 716.463 463.726C714.918 465.035 713.363 466.345 711.809 467.654C709.083 469.951 706.32 472.217 703.567 474.491C702.799 474.147 702.031 473.802 701.263 473.45ZM715.368 461.567C719.816 457.815 724.265 454.071 728.714 450.32C729.501 450.587 730.278 450.855 731.065 451.116C726.728 454.975 722.308 458.78 717.859 462.547C717.035 462.218 716.201 461.889 715.377 461.559L715.368 461.567ZM724.996 390.254H728.049L721.624 394.626C720.762 394.411 719.901 394.197 719.039 393.983C721.034 392.742 723.019 391.502 725.005 390.254H724.996ZM719.985 395.736C716.876 397.849 713.757 399.97 710.647 402.083C709.308 401.961 707.987 401.8 706.676 401.624C710.217 399.449 713.747 397.267 717.278 395.078C718.187 395.3 719.086 395.514 719.994 395.736H719.985ZM715.63 390.254C714.618 390.966 713.598 391.678 712.586 392.39C710.732 391.931 708.877 391.471 707.013 391.012C707.5 390.759 707.987 390.514 708.474 390.254H715.63ZM707.444 390.254C707.173 390.476 706.91 390.698 706.648 390.92C705.749 390.698 704.859 390.476 703.96 390.254H707.435H707.444ZM697.423 390.254C698.219 390.445 699.015 390.644 699.811 390.836C699.605 390.974 699.399 391.111 699.184 391.257C699.577 391.663 699.97 392.061 700.364 392.467C700.926 392.107 701.469 391.739 702.021 391.379C705 392.099 707.969 392.827 710.947 393.546C707.566 395.912 704.185 398.286 700.804 400.652C695.812 399.641 691.063 398.186 686.596 396.272C689.612 394.266 692.637 392.268 695.653 390.262H697.423V390.254ZM680.293 390.254H691.86C689.396 391.938 686.943 393.623 684.489 395.315C682.26 394.258 680.106 393.072 678.026 391.755C678.785 391.257 679.544 390.759 680.302 390.262L680.293 390.254ZM677.511 390.254C677.221 390.453 676.921 390.652 676.631 390.851C676.34 390.66 676.059 390.453 675.778 390.254H677.511ZM677.549 396.816C678.841 396.456 680.742 396.532 681.941 397.053C678.616 399.35 675.301 401.647 671.995 403.967C668.923 403.239 665.86 402.504 662.798 401.762C664.465 400.667 666.141 399.564 667.808 398.469C671.039 398.263 674.289 397.727 677.549 396.816ZM654.312 397.397C657.965 398.201 661.636 398.6 665.317 398.561C664.839 398.883 664.362 399.212 663.884 399.534C662.985 400.146 662.067 400.759 661.159 401.364C659.107 400.866 657.066 400.376 655.024 399.871C654.115 399.649 653.244 399.312 652.392 398.929C653.029 398.416 653.666 397.91 654.303 397.397H654.312ZM648.814 395.889C649.245 396.035 649.685 396.165 650.116 396.295C649.695 396.594 649.273 396.892 648.852 397.191C648.646 397.091 648.44 396.992 648.234 396.9C648.43 396.563 648.627 396.226 648.814 395.889ZM657.534 406.662C657.393 405.452 657.29 404.51 657.084 402.642C661.299 403.622 665.514 404.595 669.709 405.575C664.792 409.035 659.913 412.534 655.061 416.064C649.676 413.959 644.3 411.853 638.905 409.755C641.406 407.741 643.916 405.735 646.417 403.729C650.107 404.702 653.806 405.682 657.525 406.662H657.534ZM641.397 402.397C638.831 404.181 636.274 405.958 633.707 407.734C630.973 406.677 628.238 405.613 625.503 404.564C624.089 404.02 622.984 403.308 622.085 402.474C623.873 401.226 625.653 399.97 627.423 398.699C632.068 399.924 636.733 401.157 641.397 402.39V402.397ZM624.379 397.895C623.133 398.852 621.878 399.802 620.623 400.743C619.752 399.449 619.144 397.964 618.572 396.356C620.511 396.869 622.44 397.382 624.379 397.887V397.895ZM617.074 403.408C616.399 403.913 615.716 404.411 615.041 404.909C614.76 404.227 614.442 403.446 613.936 402.206C614.985 402.604 616.025 403.002 617.074 403.4V403.408ZM613.712 405.904C612.925 406.486 612.147 407.068 611.361 407.642C608.869 406.769 606.369 405.889 603.877 405.008C604.767 404.334 605.666 403.653 606.565 402.987C608.944 403.959 611.333 404.932 613.712 405.904ZM600.328 400.445C601.761 401.027 603.194 401.609 604.627 402.198C603.887 402.964 603.138 403.729 602.388 404.487C600.787 403.921 599.185 403.37 597.593 402.803C598.501 402.014 599.429 401.241 600.337 400.445H600.328ZM586.288 394.725C589.295 395.95 592.292 397.175 595.298 398.4C595.12 398.799 594.952 399.189 594.774 399.587C595.13 399.25 595.467 398.936 595.813 398.607C596.347 398.829 596.891 399.044 597.424 399.266C596.535 400.116 595.645 400.958 594.746 401.808C594.662 401.777 594.577 401.746 594.502 401.723C590.981 400.475 587.806 398.561 584.687 396.54C585.24 395.943 585.783 395.338 586.298 394.733L586.288 394.725ZM580.529 401.203C580.753 400.866 580.95 400.514 581.184 400.184C584.93 401.455 588.677 402.726 592.423 404.005C590.578 405.743 588.714 407.473 586.841 409.196C583.104 407.696 579.358 406.203 575.621 404.702C575.471 404.641 575.321 404.579 575.171 404.51C576.951 403.408 578.74 402.305 580.529 401.203ZM573.823 405.337C577.419 407.32 581.081 409.227 584.921 410.927C584.228 411.554 583.535 412.175 582.842 412.795C582.767 412.757 582.692 412.726 582.617 412.688C578.721 410.842 574.844 408.974 570.975 407.098C571.921 406.516 572.877 405.927 573.823 405.337ZM568.381 408.706C572.633 410.582 576.885 412.458 581.147 414.334C580.585 414.831 580.013 415.321 579.451 415.811C575.377 413.691 571.313 411.554 567.276 409.388C567.651 409.158 568.016 408.928 568.39 408.699L568.381 408.706ZM563.192 411.907C565.852 413.093 568.512 414.288 571.163 415.49C573.055 416.347 574.947 417.213 576.838 418.07C575.743 419.004 574.637 419.931 573.532 420.857C568.952 418.575 564.373 416.294 559.811 413.997C560.935 413.308 562.059 412.611 563.202 411.907H563.192ZM571.078 422.871C570.376 423.445 569.674 424.019 568.952 424.586C564.391 422.006 559.868 419.387 555.372 416.73C555.719 416.516 556.056 416.309 556.402 416.095C561.291 418.353 566.18 420.612 571.069 422.878L571.078 422.871ZM555.85 410.559C555.625 410.927 555.4 411.294 555.175 411.662C555.063 411.608 554.951 411.547 554.838 411.493C555.175 411.179 555.522 410.873 555.85 410.559ZM552.028 414.066C552.459 414.265 552.89 414.464 553.321 414.663C553.199 414.87 553.068 415.069 552.946 415.268C552.497 414.992 552.038 414.724 551.588 414.449C551.738 414.318 551.888 414.196 552.028 414.066ZM551.476 417.649C550.951 418.507 550.446 419.318 549.996 420.046C550.914 419.479 551.841 418.905 552.768 418.338C557.573 420.88 562.378 423.422 567.182 425.964C566.115 426.799 565.066 427.641 563.979 428.46C565.15 427.687 566.293 426.89 567.445 426.102C590.063 438.054 612.719 449.944 635.777 461.33C635.112 461.758 634.438 462.179 633.773 462.608C632.331 463.535 630.916 464.476 629.483 465.411C629.83 465.694 630.177 465.985 630.523 466.268C631.984 465.357 633.483 464.476 634.906 463.527C635.665 463.022 636.414 462.516 637.173 462.003C639.842 463.313 642.511 464.622 645.19 465.924C642.867 467.57 640.544 469.208 638.203 470.847C638.484 471.13 638.765 471.413 639.046 471.697C641.622 470.027 644.197 468.358 646.763 466.689C647.803 467.195 648.852 467.692 649.892 468.198C643.991 472.018 638.081 475.831 632.162 479.644C600.365 461.751 568.578 443.857 536.781 425.964C541.145 422.993 545.285 419.823 549.228 416.47C549.968 416.86 550.717 417.259 551.457 417.649H551.476ZM537.933 400.537C538.289 400.697 538.635 400.858 538.991 401.019C538.926 401.708 538.87 402.374 538.823 402.841C539.956 402.688 541.005 402.543 542.016 402.405C544.124 403.362 546.24 404.311 548.357 405.261C547.673 405.904 546.999 406.547 546.315 407.19C543.637 405.843 540.958 404.495 538.289 403.14C537.849 402.918 537.418 402.68 536.978 402.451C537.287 401.8 537.605 401.164 537.933 400.529V400.537ZM534.215 408.545C536.444 409.717 538.682 410.896 540.911 412.075C537.081 415.329 533.213 418.552 529.326 421.768C528.239 421.156 527.153 420.543 526.067 419.938C526.966 419.203 527.809 418.438 528.558 417.618C531.021 414.954 532.697 411.799 534.205 408.545H534.215ZM528.249 406.754C527.153 411.11 524.971 414.655 522.283 417.802C521.665 417.45 521.037 417.098 520.419 416.753C522.995 413.798 525.27 410.544 528.258 406.754H528.249ZM516.158 420.941C516.841 421.301 517.525 421.669 518.209 422.029C517.319 422.871 516.401 423.698 515.483 424.525C514.79 424.035 514.097 423.537 513.404 423.047C514.359 422.388 515.277 421.684 516.167 420.949L516.158 420.941ZM498.157 412.198C497.332 411.616 496.517 411.034 495.693 410.444C495.787 410.375 495.881 410.306 495.974 410.237C496.873 410.712 497.782 411.195 498.681 411.669C498.503 411.845 498.334 412.021 498.157 412.19V412.198ZM499.477 404.97C499.739 404.633 500.002 404.304 500.273 403.967C501.828 404.664 503.383 405.36 504.937 406.057C504.46 406.455 503.991 406.853 503.532 407.251C502.184 406.493 500.835 405.735 499.477 404.97ZM608.954 494.62C607.699 495.432 606.584 496.389 605.404 497.285C605.47 497.354 605.535 497.415 605.591 497.484C605.057 497.116 604.524 496.741 603.98 496.381C577.915 479.162 551.794 461.996 525.786 444.715C517.862 439.447 509.967 434.141 502.099 428.82C503.991 428.108 505.836 427.319 507.607 426.446C508.749 427.135 509.892 427.825 511.034 428.514C510.903 428.636 510.763 428.759 510.632 428.881C510.81 428.789 510.997 428.69 511.175 428.598C545.407 449.301 578.047 471.765 612.297 492.469C611.183 493.188 610.068 493.908 608.954 494.628V494.62ZM556.271 455.013C556.59 454.668 556.908 454.332 557.217 453.987C577.541 465.541 597.874 477.094 618.198 488.648C616.755 489.582 615.313 490.509 613.871 491.443C594.671 479.299 575.471 467.156 556.271 455.013ZM627.311 499.942C623.33 497.423 619.34 494.904 615.36 492.385C616.868 491.458 618.385 490.539 619.893 489.613C624.033 491.963 628.172 494.322 632.312 496.672C630.635 497.759 628.968 498.847 627.311 499.942ZM633.37 503.777C631.862 502.82 630.354 501.871 628.847 500.914C630.57 499.819 632.284 498.724 634.007 497.629C635.524 498.487 637.032 499.352 638.55 500.21C636.826 501.396 635.103 502.583 633.38 503.77L633.37 503.777ZM639.992 507.966C638.222 506.848 636.452 505.722 634.681 504.604C636.452 503.418 638.222 502.231 639.992 501.036C641.809 502.07 643.626 503.096 645.433 504.13C643.616 505.408 641.809 506.687 639.992 507.966ZM646.932 503.073C645.134 502.047 643.345 501.013 641.547 499.987C645.04 497.645 648.543 495.286 652.055 492.936C653.816 493.87 655.577 494.804 657.337 495.73C653.872 498.181 650.407 500.623 646.932 503.073ZM667.836 503.081C664.905 505.393 661.955 507.69 658.995 509.987C655.53 508.004 652.064 506.013 648.599 504.03C652.064 501.572 655.483 499.061 658.929 496.58C662.348 498.387 665.766 500.202 669.185 502.009C668.735 502.361 668.286 502.721 667.836 503.073V503.081ZM670.328 501.113L660.4 495.524C665.111 492.17 669.906 488.931 675.039 486.091C680.143 483.266 685.172 480.394 689.977 477.339C692.159 478.304 694.332 479.284 696.514 480.249C687.86 487.262 679.103 494.199 670.328 501.113ZM679.197 506.105C676.921 504.826 674.655 503.548 672.379 502.269C683.402 493.916 694.416 485.563 705.44 477.209C706.011 477.47 706.573 477.738 707.145 477.998C707.819 478.312 708.512 478.595 709.205 478.878C699.202 487.951 689.2 497.032 679.197 506.105ZM710.563 477.646C709.374 477.11 708.184 476.574 706.985 476.038L733.181 456.177L733.725 456.621C725.998 463.627 718.28 470.64 710.554 477.646H710.563ZM732.704 449.653C731.945 449.393 731.186 449.125 730.428 448.865C737.911 442.556 745.394 436.254 752.878 429.945C746.565 436.813 739.756 443.321 732.704 449.653ZM753.711 398.722C752.756 399.748 751.875 400.82 751.014 401.899C749.796 401.601 748.588 401.302 747.371 400.996C752.512 398.623 755.706 394.496 760.174 391.778C760.295 391.808 760.417 391.839 760.548 391.869C758.394 394.258 755.893 396.394 753.711 398.722Z" fill="#DDA15E"/>
</svg>
