<svg width="20" height="21" viewBox="0 0 20 21" fill="none" xmlns="http://www.w3.org/2000/svg">
<g filter="url(#filter0_d_171_172)">
<path d="M7.84675 10.4127C8.21385 10.9035 8.68222 11.3095 9.22007 11.6034C9.75791 11.8973 10.3527 12.072 10.964 12.1158C11.5753 12.1596 12.1889 12.0714 12.7631 11.8571C13.3374 11.6429 13.8588 11.3077 14.2921 10.8743L16.8566 8.30981C17.6352 7.5037 18.066 6.42405 18.0562 5.30339C18.0465 4.18273 17.597 3.11073 16.8045 2.31827C16.0121 1.52581 14.9401 1.07631 13.8194 1.06657C12.6987 1.05683 11.6191 1.48764 10.813 2.2662L9.34269 3.72795M11.266 8.70303C10.8989 8.21225 10.4306 7.80617 9.89273 7.51231C9.35488 7.21846 8.76012 7.04372 8.1488 6.99994C7.53748 6.95615 6.92389 7.04436 6.34965 7.25857C5.77542 7.47277 5.25397 7.80797 4.82067 8.24143L2.25619 10.8059C1.47763 11.612 1.04682 12.6917 1.05656 13.8123C1.0663 14.933 1.5158 16.005 2.30826 16.7974C3.10072 17.5899 4.17272 18.0394 5.29338 18.0491C6.41404 18.0589 7.49369 17.6281 8.2998 16.8495L9.76155 15.3878" stroke="#FEFAE0" stroke-width="2" stroke-linecap="round" stroke-linejoin="round" shape-rendering="crispEdges"/>
</g>
<defs>
<filter id="filter0_d_171_172" x="0.0563965" y="0.0664062" width="19" height="19.9829" filterUnits="userSpaceOnUse" color-interpolation-filters="sRGB">
<feFlood flood-opacity="0" result="BackgroundImageFix"/>
<feColorMatrix in="SourceAlpha" type="matrix" values="0 0 0 0 0 0 0 0 0 0 0 0 0 0 0 0 0 0 127 0" result="hardAlpha"/>
<feOffset dy="1"/>
<feComposite in2="hardAlpha" operator="out"/>
<feColorMatrix type="matrix" values="0 0 0 0 0.156863 0 0 0 0 0.211765 0 0 0 0 0.0941176 0 0 0 1 0"/>
<feBlend mode="normal" in2="BackgroundImageFix" result="effect1_dropShadow_171_172"/>
<feBlend mode="normal" in="SourceGraphic" in2="effect1_dropShadow_171_172" result="shape"/>
</filter>
</defs>
</svg>
