<svg width="19" height="17" viewBox="0 0 19 17" fill="none" xmlns="http://www.w3.org/2000/svg">
<g filter="url(#filter0_d_171_192)">
<path d="M17.575 12.9L11.9286 7.8M7.07143 7.8L1.42503 12.9M1 3.55L7.94018 8.40813C8.50218 8.80152 8.78318 8.99822 9.08882 9.07441C9.35881 9.14171 9.64119 9.14171 9.91118 9.07441C10.2168 8.99822 10.4978 8.80152 11.0598 8.40813L18 3.55M5.08 14.6H13.92C15.3481 14.6 16.0622 14.6 16.6077 14.3221C17.0875 14.0776 17.4776 13.6875 17.7221 13.2077C18 12.6622 18 11.9481 18 10.52V5.08C18 3.65187 18 2.9378 17.7221 2.39232C17.4776 1.91251 17.0875 1.52241 16.6077 1.27793C16.0622 1 15.3481 1 13.92 1H5.08C3.65187 1 2.9378 1 2.39232 1.27793C1.91251 1.52241 1.52241 1.91251 1.27793 2.39232C1 2.9378 1 3.65187 1 5.08V10.52C1 11.9481 1 12.6622 1.27793 13.2077C1.52241 13.6875 1.91251 14.0776 2.39232 14.3221C2.9378 14.6 3.65187 14.6 5.08 14.6Z" stroke="#FEFAE0" stroke-width="2" stroke-linecap="round" stroke-linejoin="round" shape-rendering="crispEdges"/>
</g>
<defs>
<filter id="filter0_d_171_192" x="-0.00012207" y="0" width="19.0002" height="16.6" filterUnits="userSpaceOnUse" color-interpolation-filters="sRGB">
<feFlood flood-opacity="0" result="BackgroundImageFix"/>
<feColorMatrix in="SourceAlpha" type="matrix" values="0 0 0 0 0 0 0 0 0 0 0 0 0 0 0 0 0 0 127 0" result="hardAlpha"/>
<feOffset dy="1"/>
<feComposite in2="hardAlpha" operator="out"/>
<feColorMatrix type="matrix" values="0 0 0 0 0.156863 0 0 0 0 0.211765 0 0 0 0 0.0941176 0 0 0 1 0"/>
<feBlend mode="normal" in2="BackgroundImageFix" result="effect1_dropShadow_171_192"/>
<feBlend mode="normal" in="SourceGraphic" in2="effect1_dropShadow_171_192" result="shape"/>
</filter>
</defs>
</svg>
