<svg width="17" height="24" viewBox="0 0 17 24" fill="none" xmlns="http://www.w3.org/2000/svg">
<path d="M12.9029 1C12.9838 1.06842 13.0276 1.14938 12.9808 1.24575C12.931 1.3489 12.8271 1.36483 12.7109 1.36797C11.6964 1.3946 10.8236 1.94512 10.4678 2.77924C10.4556 2.80771 10.4443 2.83644 10.4301 2.86412C10.3706 2.97981 10.2654 3.02473 10.1445 2.98686C10.0266 2.95004 9.97266 2.85028 10.0136 2.73276C10.0378 2.66251 10.0678 2.59278 10.1021 2.52592C10.5143 1.72288 11.2123 1.22747 12.1835 1.0269C12.2167 1.02011 12.2484 1.00914 12.2807 1C12.4881 1 12.6955 1 12.9029 1Z" fill="#FEFAE0" stroke="#FEFAE0" stroke-linecap="round"/>
<path d="M4.0328 18.265C3.71624 18.1692 3.67356 18.1074 3.63699 17.7908C3.45541 16.2207 3.27035 14.6509 3.08659 13.0812C2.98296 12.1955 2.87933 11.3098 2.77526 10.4237C2.77177 10.3954 2.76568 10.3675 2.76132 10.3414C1.89611 10.1777 1.92006 9.3277 2.12341 8.76337C2.23009 8.46858 2.50703 8.3484 2.82794 8.3497C3.65527 8.35319 4.48217 8.35101 5.3095 8.35101C5.38788 8.35101 5.46626 8.35101 5.57076 8.35101C5.45406 7.23586 5.78021 6.3001 6.63889 5.58642C7.24589 5.08175 7.95695 4.86882 8.74292 4.92369C10.2556 5.02906 11.6895 6.40374 11.4574 8.35101C11.538 8.35101 11.6155 8.35101 11.693 8.35101C12.5055 8.35101 13.3185 8.35014 14.131 8.35101C14.7027 8.35188 14.9967 8.64929 14.9975 9.22711C14.9975 9.37211 15.0084 9.51972 14.9845 9.66124C14.9305 9.98216 14.7458 10.2068 14.4241 10.2839C14.2856 10.317 14.242 10.3828 14.2277 10.5138C14.1271 11.4147 14.0174 12.3144 13.9185 13.2153C13.8959 13.4225 13.8371 13.5789 13.6102 13.6302C13.5697 13.6394 13.5214 13.6986 13.5118 13.7426C13.4857 13.8623 13.4748 13.986 13.4648 14.1084C13.4491 14.2978 13.3655 14.5011 13.6337 14.613C13.6934 14.6378 13.7274 14.8077 13.7169 14.9048C13.6115 15.8854 13.494 16.8642 13.3812 17.844C13.3585 18.0399 13.2889 18.1867 13.0751 18.2428C13.0276 18.2555 12.9793 18.356 12.9732 18.4201C12.9048 19.142 12.8447 19.8648 12.7816 20.5872C12.7145 21.3532 12.6492 22.1191 12.5761 22.8841C12.5495 23.1615 12.4446 23.2499 12.1668 23.2499C9.72875 23.2508 7.29074 23.2508 4.85273 23.2499C4.57753 23.2499 4.46824 23.1589 4.44124 22.8828C4.38507 22.3129 4.33586 21.742 4.29232 21.1707C4.27359 20.9264 4.40945 20.7705 4.63196 20.7509C4.80657 20.7357 4.93764 20.8642 4.96507 21.1006C5.01253 21.5173 5.05999 21.9349 5.08699 22.3534C5.09788 22.5184 5.14011 22.5802 5.31429 22.5798C7.25155 22.5746 9.1888 22.5754 11.1261 22.5789C11.2689 22.5789 11.3412 22.5367 11.3534 22.3891C11.3878 21.9776 11.4291 21.567 11.4661 21.1559C11.521 20.5428 11.5676 19.9284 11.6307 19.3162C11.6721 18.9134 11.5223 18.7275 11.116 18.7275C9.0917 18.7262 7.06736 18.7288 5.04301 18.7236C4.84663 18.7231 4.76041 18.7771 4.78741 18.9835C4.81179 19.1699 4.82747 19.3584 4.83052 19.5461C4.83357 19.7377 4.70163 19.8944 4.5501 19.9053C4.35502 19.9197 4.17823 19.7812 4.1569 19.5783C4.11074 19.1459 4.0746 18.7122 4.0328 18.265ZM8.10457 10.8478C6.66109 10.8478 5.21762 10.8478 3.77415 10.8478C3.64178 10.8478 3.50897 10.8256 3.53727 11.0455C3.65527 11.9634 3.76457 12.8822 3.87125 13.8014C4.00711 14.9723 4.13861 16.1432 4.26968 17.3145C4.28709 17.4682 4.34936 17.5405 4.51918 17.5405C6.9929 17.5361 9.46618 17.5366 11.9399 17.5396C12.0901 17.5396 12.1541 17.4978 12.1711 17.3341C12.2556 16.5272 12.3544 15.7221 12.4489 14.9165C12.5856 13.7513 12.7276 12.5865 12.8569 11.42C12.9031 11.0028 12.7485 10.8482 12.3266 10.8478C10.9192 10.8469 9.51146 10.8478 8.10457 10.8478ZM8.51562 8.32706V8.31531C9.13133 8.31531 9.74747 8.31618 10.3632 8.31531C10.7912 8.31487 10.8191 8.28439 10.8056 7.84939C10.8056 7.84199 10.8056 7.83502 10.8047 7.82762C10.7285 6.38676 9.52932 5.40659 8.10849 5.62474C6.96808 5.79979 6.09154 6.94716 6.21956 8.09106C6.23916 8.26392 6.30404 8.33534 6.49345 8.33229C7.16707 8.3201 7.84156 8.32706 8.51562 8.32706ZM8.51083 9.01026V9.00765C6.66153 9.00765 4.81179 9.00721 2.96249 9.00939C2.87976 9.00939 2.7291 9.0255 2.72475 9.05206C2.69731 9.22711 2.68599 9.40869 2.7082 9.5833C2.71299 9.62031 2.87802 9.65906 2.96903 9.6595C6.58794 9.66342 10.2073 9.66298 13.8262 9.66255C13.942 9.66255 14.0622 9.67866 14.1728 9.6534C14.2364 9.63903 14.3039 9.56501 14.3331 9.50144C14.3605 9.44135 14.3318 9.35818 14.3413 9.28677C14.3714 9.06426 14.2769 9.00504 14.0587 9.00591C12.2094 9.01375 10.3606 9.01026 8.51083 9.01026Z" fill="#FEFAE0" stroke="#FEFAE0" stroke-linecap="round"/>
<path d="M13.0032 6.34234C13.028 5.85552 13.0807 5.37262 13.3006 4.92891C13.5858 4.35283 14.0264 3.99229 14.6974 4.00013C15.3258 4.00709 15.8435 4.54355 15.857 5.18059C15.8705 5.81198 15.3676 6.36542 14.7366 6.39677C14.2955 6.41898 13.8793 6.4856 13.5174 6.77691C13.3097 6.94411 13.038 6.80477 13.004 6.53785C12.9958 6.47384 13.0027 6.40766 13.0032 6.34278V6.34234ZM13.7221 5.85465C14.0634 5.81111 14.3844 5.77148 14.7044 5.72881C14.9469 5.69659 15.1255 5.52981 15.1629 5.306C15.2052 5.05171 15.1068 4.844 14.8869 4.72382C14.6556 4.59798 14.3578 4.65502 14.137 4.87971C13.8714 5.14924 13.7695 5.49063 13.7221 5.85465Z" fill="#FEFAE0" stroke="#FEFAE0" stroke-linecap="round"/>
<path d="M3.85265 6.27836C3.85265 6.36502 3.86049 6.45254 3.85134 6.53832C3.82086 6.81656 3.54218 6.95111 3.3249 6.77433C2.98352 6.49652 2.58858 6.42511 2.16925 6.40638C1.5444 6.37895 1.0541 5.91129 1.00402 5.30168C0.954384 4.69642 1.36892 4.13601 1.97984 4.02585C2.54634 3.92352 3.00747 4.12731 3.33971 4.59627C3.69502 5.09833 3.80649 5.67833 3.85265 6.27793V6.27836ZM3.10718 5.8438C3.10805 5.50242 2.94172 5.07569 2.70136 4.87452C2.59467 4.78525 2.45838 4.71166 2.32383 4.679C2.01728 4.60411 1.72685 4.81791 1.67242 5.13099C1.62452 5.40618 1.82656 5.69096 2.1109 5.73015C2.43748 5.775 2.76624 5.80591 3.10675 5.84423L3.10718 5.8438Z" fill="#FEFAE0" stroke="#FEFAE0" stroke-linecap="round"/>
</svg>
