<svg width="19" height="20" viewBox="0 0 19 20" fill="none" xmlns="http://www.w3.org/2000/svg">
<g filter="url(#filter0_d_165_236)">
<path d="M6.95 17.1875V10.8975C6.95 10.4215 6.95 10.1834 7.04265 10.0016C7.12414 9.84167 7.25417 9.71164 7.41411 9.63014C7.59594 9.5375 7.83396 9.5375 8.31 9.5375H10.69C11.166 9.5375 11.4041 9.5375 11.5859 9.63014C11.7458 9.71164 11.8759 9.84167 11.9574 10.0016C12.05 10.1834 12.05 10.4215 12.05 10.8975V17.1875M1 7.4125L8.684 1.6495C8.97662 1.43004 9.12293 1.3203 9.28362 1.278C9.42546 1.24067 9.57454 1.24067 9.71638 1.278C9.87707 1.3203 10.0234 1.43004 10.316 1.6495L18 7.4125M2.7 6.1375V14.4675C2.7 15.4196 2.7 15.8956 2.88529 16.2593C3.04828 16.5792 3.30834 16.8392 3.62822 17.0022C3.99187 17.1875 4.46791 17.1875 5.42 17.1875H13.58C14.5321 17.1875 15.0081 17.1875 15.3718 17.0022C15.6917 16.8392 15.9517 16.5792 16.1147 16.2593C16.3 15.8956 16.3 15.4196 16.3 14.4675V6.1375L11.132 2.2615C10.5468 1.82257 10.2541 1.60311 9.93277 1.51851C9.64909 1.44383 9.35092 1.44383 9.06724 1.51851C8.74586 1.60311 8.45324 1.82257 7.868 2.2615L2.7 6.1375Z" stroke="#FEFAE0" stroke-width="2" stroke-linecap="round" stroke-linejoin="round" shape-rendering="crispEdges"/>
</g>
<defs>
<filter id="filter0_d_165_236" x="0" y="0.25" width="19" height="18.9375" filterUnits="userSpaceOnUse" color-interpolation-filters="sRGB">
<feFlood flood-opacity="0" result="BackgroundImageFix"/>
<feColorMatrix in="SourceAlpha" type="matrix" values="0 0 0 0 0 0 0 0 0 0 0 0 0 0 0 0 0 0 127 0" result="hardAlpha"/>
<feOffset dy="1"/>
<feComposite in2="hardAlpha" operator="out"/>
<feColorMatrix type="matrix" values="0 0 0 0 0.156863 0 0 0 0 0.211765 0 0 0 0 0.0941176 0 0 0 1 0"/>
<feBlend mode="normal" in2="BackgroundImageFix" result="effect1_dropShadow_165_236"/>
<feBlend mode="normal" in="SourceGraphic" in2="effect1_dropShadow_165_236" result="shape"/>
</filter>
</defs>
</svg>
