<svg width="14" height="14" viewBox="0 0 14 14" fill="none" xmlns="http://www.w3.org/2000/svg">
<path d="M1.92308 1H9.30769C9.55251 1 9.78732 1.09725 9.9604 1.27036C10.1335 1.44347 10.2308 1.67826 10.2308 1.92308V11.1538C10.2308 11.6434 10.0363 12.113 9.69004 12.4593C9.34382 12.8055 8.87424 13 8.38462 13H2.84615C2.35653 13 1.88695 12.8055 1.54073 12.4593C1.19451 12.113 1 11.6434 1 11.1538V1.92308C1 1.67826 1.09725 1.44347 1.27036 1.27036C1.44347 1.09725 1.67826 1 1.92308 1Z" stroke="#FEFAE0" stroke-linecap="round" stroke-linejoin="round"/>
<path d="M10.2307 3.30768H12.0769C12.3217 3.30768 12.5565 3.40493 12.7296 3.57804C12.9027 3.75115 12.9999 3.98594 12.9999 4.23076V8.3846C12.9999 8.62942 12.9027 8.8642 12.7296 9.03732C12.5565 9.21042 12.3217 9.30768 12.0769 9.30768H10.2307" stroke="#FEFAE0" stroke-linecap="round" stroke-linejoin="round"/>
<path d="M4 4.23077V9.3077" stroke="#FEFAE0" stroke-linecap="round" stroke-linejoin="round"/>
<path d="M7.23071 4.23077V9.3077" stroke="#FEFAE0" stroke-linecap="round" stroke-linejoin="round"/>
</svg>
