<svg width="208" height="52" viewBox="0 0 208 52" fill="none" xmlns="http://www.w3.org/2000/svg">
<g filter="url(#filter0_d_79_1021)">
<path d="M27.2307 33.6924H31.0769C32.139 33.6924 32.9999 32.8314 32.9999 31.7693V26.9616C32.9999 25.8995 32.139 25.0385 31.0769 25.0385H27.5363" stroke="#FEFAE0" stroke-width="3" stroke-linecap="round" stroke-linejoin="round"/>
<path d="M10.8848 25.767V34.6537C10.8848 36.778 12.6067 38.4999 14.7309 38.4999H22.4232C24.5474 38.4999 26.2694 36.778 26.2694 34.6537V25.7554" stroke="#FEFAE0" stroke-width="3" stroke-linecap="round" stroke-linejoin="round"/>
<path d="M10.8846 25.7539C9.20406 25.1599 8 23.5571 8 21.6732C8 19.2835 9.93723 17.3462 12.3269 17.3462C12.8515 17.3462 13.3542 17.4396 13.8194 17.6106C14.1572 15.2858 16.1585 13.5001 18.5769 13.5001C20.9953 13.5001 22.9967 15.2858 23.3344 17.6106C23.7997 17.4396 24.3024 17.3462 24.8269 17.3462C27.2165 17.3462 29.1538 19.2835 29.1538 21.6732C29.1538 24.0629 27.2165 26.0001 24.8269 26.0001H16.6538V29.8462C16.6538 31.4394 15.3624 32.7309 13.7692 32.7309C12.1761 32.7309 10.8846 31.4394 10.8846 29.8462V25.7539Z" stroke="#FEFAE0" stroke-width="3" stroke-linecap="round" stroke-linejoin="round"/>
</g>
<g filter="url(#filter1_d_79_1021)">
<path d="M56.196 39.288C55.284 39.288 54.216 39.252 52.992 39.18C50.184 39.06 48.096 39 46.728 39C46.2 38.352 45.936 37.596 45.936 36.732C46.752 36.732 47.328 36.6 47.664 36.336C48 36.048 48.168 35.568 48.168 34.896V17.976C48.168 17.304 48 16.836 47.664 16.572C47.328 16.284 46.752 16.14 45.936 16.14C45.936 15.276 46.2 14.52 46.728 13.872C48.072 13.872 50.148 13.836 52.956 13.764C54.204 13.716 55.056 13.692 55.512 13.692C59.28 13.692 61.944 14.28 63.504 15.456C65.064 16.632 65.844 18.06 65.844 19.74C65.844 21.132 65.484 22.308 64.764 23.268C64.068 24.204 62.904 25.008 61.272 25.68C63.408 26.112 64.932 26.796 65.844 27.732C66.756 28.668 67.212 30.072 67.212 31.944C67.212 36.84 63.54 39.288 56.196 39.288ZM55.188 24.816C58.404 24.816 60.012 23.4 60.012 20.568C60.012 19.224 59.64 18.18 58.896 17.436C58.176 16.692 57.072 16.32 55.584 16.32C54.912 16.32 54.42 16.368 54.108 16.464V24.744C54.54 24.792 54.9 24.816 55.188 24.816ZM55.62 36.66C58.98 36.66 60.66 35.208 60.66 32.304C60.66 30.648 60.24 29.424 59.4 28.632C58.56 27.816 57.192 27.408 55.296 27.408L54.108 27.444V36.552C54.756 36.624 55.26 36.66 55.62 36.66ZM79.3013 35.328C80.8133 35.328 82.2173 34.848 83.5133 33.888C83.7053 34.08 83.8733 34.368 84.0173 34.752C84.1613 35.136 84.2333 35.472 84.2333 35.76C84.2333 36.192 83.9453 36.696 83.3693 37.272C82.7933 37.824 81.9893 38.304 80.9573 38.712C79.9493 39.12 78.8093 39.324 77.5373 39.324C75.7613 39.324 74.2013 38.94 72.8573 38.172C71.5373 37.404 70.5173 36.288 69.7973 34.824C69.0773 33.36 68.7173 31.632 68.7173 29.64C68.7173 27.6 69.1013 25.812 69.8693 24.276C70.6613 22.74 71.7413 21.564 73.1093 20.748C74.4773 19.908 76.0253 19.488 77.7533 19.488C79.9373 19.488 81.6773 20.124 82.9733 21.396C84.2693 22.668 84.9173 24.432 84.9173 26.688C84.9173 27.744 84.7493 28.584 84.4133 29.208C84.0773 29.808 83.4773 30.108 82.6133 30.108H74.8373C74.9813 33.588 76.4693 35.328 79.3013 35.328ZM77.5373 21.972C76.7933 21.972 76.1693 22.392 75.6653 23.232C75.1613 24.048 74.8853 25.428 74.8373 27.372H78.4733C78.8573 27.372 79.1093 27.24 79.2293 26.976C79.3493 26.712 79.4093 26.304 79.4093 25.752C79.4093 24.336 79.2413 23.352 78.9053 22.8C78.5693 22.248 78.1133 21.972 77.5373 21.972ZM97.3716 35.328C98.8836 35.328 100.288 34.848 101.584 33.888C101.776 34.08 101.944 34.368 102.088 34.752C102.232 35.136 102.304 35.472 102.304 35.76C102.304 36.192 102.016 36.696 101.44 37.272C100.864 37.824 100.06 38.304 99.0276 38.712C98.0196 39.12 96.8796 39.324 95.6076 39.324C93.8316 39.324 92.2716 38.94 90.9276 38.172C89.6076 37.404 88.5876 36.288 87.8676 34.824C87.1476 33.36 86.7876 31.632 86.7876 29.64C86.7876 27.6 87.1716 25.812 87.9396 24.276C88.7316 22.74 89.8116 21.564 91.1796 20.748C92.5476 19.908 94.0956 19.488 95.8236 19.488C98.0076 19.488 99.7476 20.124 101.044 21.396C102.34 22.668 102.988 24.432 102.988 26.688C102.988 27.744 102.82 28.584 102.484 29.208C102.148 29.808 101.548 30.108 100.684 30.108H92.9076C93.0516 33.588 94.5396 35.328 97.3716 35.328ZM95.6076 21.972C94.8636 21.972 94.2396 22.392 93.7356 23.232C93.2316 24.048 92.9556 25.428 92.9076 27.372H96.5436C96.9276 27.372 97.1796 27.24 97.2996 26.976C97.4196 26.712 97.4796 26.304 97.4796 25.752C97.4796 24.336 97.3116 23.352 96.9756 22.8C96.6396 22.248 96.1836 21.972 95.6076 21.972ZM117.17 19.452C118.25 19.452 119.042 19.728 119.546 20.28C120.05 20.832 120.302 21.588 120.302 22.548C120.302 23.58 120.026 24.42 119.474 25.068C118.946 25.716 118.226 26.04 117.314 26.04C116.522 26.04 115.874 25.812 115.37 25.356C114.89 24.9 114.65 24.36 114.65 23.736C114.65 23.352 114.686 23.052 114.758 22.836C113.894 23.052 113.162 23.424 112.562 23.952V34.752C112.562 35.352 112.646 35.808 112.814 36.12C112.982 36.432 113.306 36.672 113.786 36.84C114.29 36.984 115.034 37.056 116.018 37.056C116.018 37.488 115.97 37.86 115.874 38.172C115.778 38.46 115.598 38.736 115.334 39H105.722C105.17 38.448 104.894 37.8 104.894 37.056C105.59 37.056 106.082 36.912 106.37 36.624C106.682 36.312 106.838 35.796 106.838 35.076V24.672C106.838 24.024 106.658 23.568 106.298 23.304C105.962 23.04 105.35 22.908 104.462 22.908V21.288C105.254 20.832 106.298 20.436 107.594 20.1C108.914 19.74 109.934 19.56 110.654 19.56C111.23 19.56 111.638 19.764 111.878 20.172C112.118 20.58 112.238 21.396 112.238 22.62C112.67 21.804 113.354 21.072 114.29 20.424C115.226 19.776 116.186 19.452 117.17 19.452ZM128.805 29.316L130.461 35.616L132.117 29.316L133.521 24.42C133.617 24.036 133.665 23.748 133.665 23.556C133.665 23.052 133.497 22.68 133.161 22.44C132.849 22.176 132.393 22.044 131.793 22.044C131.793 21.06 132.021 20.34 132.477 19.884H139.461C139.941 20.364 140.181 21.084 140.181 22.044C139.581 22.044 139.125 22.188 138.813 22.476C138.501 22.764 138.237 23.244 138.021 23.916L134.277 35.4C133.869 36.816 133.413 37.812 132.909 38.388C132.405 38.964 131.637 39.252 130.605 39.252H126.861L121.173 23.916C120.909 23.22 120.645 22.74 120.381 22.476C120.117 22.188 119.685 22.044 119.085 22.044C119.085 21.108 119.337 20.388 119.841 19.884H128.049C128.313 20.148 128.517 20.484 128.661 20.892C128.805 21.276 128.877 21.66 128.877 22.044C128.373 22.044 127.965 22.188 127.653 22.476C127.341 22.74 127.185 23.136 127.185 23.664C127.185 23.832 127.233 24.084 127.329 24.42L128.805 29.316ZM139.94 33.924C139.94 32.316 140.468 31.044 141.524 30.108C142.58 29.172 144.14 28.704 146.204 28.704C146.924 28.704 147.656 28.776 148.4 28.92C149.168 29.064 149.792 29.256 150.272 29.496V24.708C150.272 23.748 150.032 23.064 149.552 22.656C149.072 22.224 148.424 22.008 147.608 22.008C146.816 22.008 146.168 22.2 145.664 22.584C146.12 22.728 146.456 22.98 146.672 23.34C146.912 23.676 147.032 24.06 147.032 24.492C147.032 25.26 146.756 25.884 146.204 26.364C145.652 26.844 144.956 27.084 144.116 27.084C143.204 27.084 142.472 26.82 141.92 26.292C141.368 25.764 141.092 25.08 141.092 24.24C141.092 23.4 141.38 22.608 141.956 21.864C142.532 21.12 143.408 20.52 144.584 20.064C145.784 19.608 147.26 19.38 149.012 19.38C151.388 19.38 153.188 19.872 154.412 20.856C155.636 21.816 156.248 23.232 156.248 25.104V34.644C156.248 35.796 156.8 36.492 157.904 36.732V37.884C157.592 38.316 157.076 38.652 156.356 38.892C155.636 39.132 154.904 39.252 154.16 39.252C152.528 39.252 151.376 38.688 150.704 37.56C150.152 38.04 149.48 38.448 148.688 38.784C147.896 39.096 146.996 39.252 145.988 39.252C144.188 39.252 142.724 38.76 141.596 37.776C140.492 36.768 139.94 35.484 139.94 33.924ZM150.272 32.268C150.008 32.1 149.684 31.956 149.3 31.836C148.94 31.716 148.592 31.656 148.256 31.656C147.584 31.656 147.032 31.872 146.6 32.304C146.168 32.712 145.952 33.312 145.952 34.104C145.952 34.752 146.168 35.292 146.6 35.724C147.032 36.132 147.608 36.336 148.328 36.336C148.688 36.336 149.036 36.288 149.372 36.192C149.732 36.072 150.032 35.928 150.272 35.76V32.268ZM179.796 38.028C179.436 38.388 178.788 38.676 177.852 38.892C176.94 39.108 176.064 39.216 175.224 39.216C174.192 39.216 173.424 39.024 172.92 38.64C172.44 38.256 172.2 37.644 172.2 36.804V25.572C172.2 24.636 171.996 23.964 171.588 23.556C171.18 23.148 170.64 22.944 169.968 22.944C168.984 22.944 168.156 23.34 167.484 24.132V35.112C167.484 35.808 167.628 36.312 167.916 36.624C168.228 36.936 168.744 37.092 169.464 37.092C169.464 37.812 169.188 38.448 168.636 39H160.464C159.888 38.424 159.6 37.788 159.6 37.092C160.32 37.092 160.836 36.936 161.148 36.624C161.46 36.312 161.616 35.808 161.616 35.112V24.6C161.616 23.952 161.436 23.496 161.076 23.232C160.716 22.944 160.092 22.8 159.204 22.8V21.18C159.972 20.748 161.052 20.352 162.444 19.992C163.86 19.632 164.928 19.452 165.648 19.452C166.2 19.452 166.62 19.632 166.908 19.992C167.22 20.328 167.4 20.976 167.448 21.936C168.072 21.168 168.852 20.568 169.788 20.136C170.724 19.68 171.78 19.452 172.956 19.452C174.684 19.452 175.956 19.896 176.772 20.784C177.612 21.648 178.032 23.076 178.032 25.068V34.896C178.032 36.072 178.608 36.768 179.76 36.984L179.796 38.028ZM181.284 33.924C181.284 32.316 181.812 31.044 182.868 30.108C183.924 29.172 185.484 28.704 187.548 28.704C188.268 28.704 189 28.776 189.744 28.92C190.512 29.064 191.136 29.256 191.616 29.496V24.708C191.616 23.748 191.376 23.064 190.896 22.656C190.416 22.224 189.768 22.008 188.952 22.008C188.16 22.008 187.512 22.2 187.008 22.584C187.464 22.728 187.8 22.98 188.016 23.34C188.256 23.676 188.376 24.06 188.376 24.492C188.376 25.26 188.1 25.884 187.548 26.364C186.996 26.844 186.3 27.084 185.46 27.084C184.548 27.084 183.816 26.82 183.264 26.292C182.712 25.764 182.436 25.08 182.436 24.24C182.436 23.4 182.724 22.608 183.3 21.864C183.876 21.12 184.752 20.52 185.928 20.064C187.128 19.608 188.604 19.38 190.356 19.38C192.732 19.38 194.532 19.872 195.756 20.856C196.98 21.816 197.592 23.232 197.592 25.104V34.644C197.592 35.796 198.144 36.492 199.248 36.732V37.884C198.936 38.316 198.42 38.652 197.7 38.892C196.98 39.132 196.248 39.252 195.504 39.252C193.872 39.252 192.72 38.688 192.048 37.56C191.496 38.04 190.824 38.448 190.032 38.784C189.24 39.096 188.34 39.252 187.332 39.252C185.532 39.252 184.068 38.76 182.94 37.776C181.836 36.768 181.284 35.484 181.284 33.924ZM191.616 32.268C191.352 32.1 191.028 31.956 190.644 31.836C190.284 31.716 189.936 31.656 189.6 31.656C188.928 31.656 188.376 31.872 187.944 32.304C187.512 32.712 187.296 33.312 187.296 34.104C187.296 34.752 187.512 35.292 187.944 35.724C188.376 36.132 188.952 36.336 189.672 36.336C190.032 36.336 190.38 36.288 190.716 36.192C191.076 36.072 191.376 35.928 191.616 35.76V32.268Z" fill="#FEFAE0"/>
</g>
<defs>
<filter id="filter0_d_79_1021" x="6.5" y="12.0001" width="30" height="29.9998" filterUnits="userSpaceOnUse" color-interpolation-filters="sRGB">
<feFlood flood-opacity="0" result="BackgroundImageFix"/>
<feColorMatrix in="SourceAlpha" type="matrix" values="0 0 0 0 0 0 0 0 0 0 0 0 0 0 0 0 0 0 127 0" result="hardAlpha"/>
<feOffset dx="2" dy="2"/>
<feComposite in2="hardAlpha" operator="out"/>
<feColorMatrix type="matrix" values="0 0 0 0 0.156863 0 0 0 0 0.211765 0 0 0 0 0.0941176 0 0 0 1 0"/>
<feBlend mode="normal" in2="BackgroundImageFix" result="effect1_dropShadow_79_1021"/>
<feBlend mode="normal" in="SourceGraphic" in2="effect1_dropShadow_79_1021" result="shape"/>
</filter>
<filter id="filter1_d_79_1021" x="45.936" y="13.692" width="155.312" height="27.632" filterUnits="userSpaceOnUse" color-interpolation-filters="sRGB">
<feFlood flood-opacity="0" result="BackgroundImageFix"/>
<feColorMatrix in="SourceAlpha" type="matrix" values="0 0 0 0 0 0 0 0 0 0 0 0 0 0 0 0 0 0 127 0" result="hardAlpha"/>
<feOffset dx="2" dy="2"/>
<feComposite in2="hardAlpha" operator="out"/>
<feColorMatrix type="matrix" values="0 0 0 0 0.156863 0 0 0 0 0.211765 0 0 0 0 0.0941176 0 0 0 1 0"/>
<feBlend mode="normal" in2="BackgroundImageFix" result="effect1_dropShadow_79_1021"/>
<feBlend mode="normal" in="SourceGraphic" in2="effect1_dropShadow_79_1021" result="shape"/>
</filter>
</defs>
</svg>
