<svg width="20" height="21" viewBox="0 0 20 21" fill="none" xmlns="http://www.w3.org/2000/svg">
<g filter="url(#filter0_d_171_186)">
<path d="M6.90995 7.30984C7.54589 8.63438 8.41281 9.87578 9.5107 10.9737C10.6086 12.0716 11.85 12.9385 13.1745 13.5744C13.2885 13.6291 13.3454 13.6565 13.4175 13.6775C13.6737 13.7522 13.9882 13.6985 14.2052 13.5432C14.2662 13.4995 14.3184 13.4472 14.4229 13.3428C14.7423 13.0234 14.902 12.8636 15.0627 12.7592C15.6683 12.3654 16.4492 12.3654 17.0549 12.7592C17.2155 12.8636 17.3752 13.0234 17.6946 13.3428L17.8727 13.5209C18.3583 14.0064 18.6011 14.2492 18.733 14.51C18.9953 15.0286 18.9953 15.641 18.733 16.1596C18.6011 16.4203 18.3583 16.6631 17.8727 17.1487L17.7287 17.2928C17.2447 17.7767 17.0028 18.0186 16.6738 18.2034C16.3088 18.4085 15.7418 18.5559 15.3232 18.5547C14.9458 18.5536 14.688 18.4804 14.1722 18.334C11.4006 17.5473 8.78521 16.063 6.60329 13.8811C4.42137 11.6992 2.93707 9.08379 2.15039 6.31215C2.00401 5.79641 1.93082 5.53854 1.9297 5.16122C1.92845 4.74254 2.07589 4.17559 2.28094 3.81056C2.46574 3.48159 2.7077 3.23963 3.19162 2.75571L3.33565 2.61168C3.82124 2.12609 4.06403 1.8833 4.32479 1.75141C4.84337 1.48911 5.4558 1.48911 5.97439 1.75141C6.23514 1.8833 6.47793 2.12609 6.96352 2.61168L7.14157 2.78973C7.46101 3.10917 7.62073 3.26889 7.72516 3.4295C8.11896 4.03519 8.11896 4.81603 7.72516 5.42172C7.62073 5.58233 7.46101 5.74205 7.14157 6.06149C7.03713 6.16594 6.9849 6.21816 6.94119 6.27921C6.78585 6.49615 6.73221 6.8107 6.80688 7.06686C6.8279 7.13895 6.85525 7.19591 6.90995 7.30984Z" stroke="#FEFAE0" stroke-width="2" stroke-linecap="round" stroke-linejoin="round" shape-rendering="crispEdges"/>
</g>
<defs>
<filter id="filter0_d_171_186" x="0.929688" y="0.554688" width="19" height="20" filterUnits="userSpaceOnUse" color-interpolation-filters="sRGB">
<feFlood flood-opacity="0" result="BackgroundImageFix"/>
<feColorMatrix in="SourceAlpha" type="matrix" values="0 0 0 0 0 0 0 0 0 0 0 0 0 0 0 0 0 0 127 0" result="hardAlpha"/>
<feOffset dy="1"/>
<feComposite in2="hardAlpha" operator="out"/>
<feColorMatrix type="matrix" values="0 0 0 0 0.156863 0 0 0 0 0.211765 0 0 0 0 0.0941176 0 0 0 1 0"/>
<feBlend mode="normal" in2="BackgroundImageFix" result="effect1_dropShadow_171_186"/>
<feBlend mode="normal" in="SourceGraphic" in2="effect1_dropShadow_171_186" result="shape"/>
</filter>
</defs>
</svg>
