<svg width="20" height="21" viewBox="0 0 20 21" fill="none" xmlns="http://www.w3.org/2000/svg">
<g filter="url(#filter0_d_170_169)">
<path d="M9.65115 2.30751C9.86354 1.8987 9.96974 1.69429 10.1121 1.62786C10.236 1.57001 10.3792 1.57001 10.5032 1.62786C10.6455 1.69429 10.7517 1.8987 10.9641 2.30751L12.3632 5.00056C12.4548 5.1769 12.5006 5.26507 12.5693 5.32364C12.63 5.37535 12.703 5.4105 12.7812 5.42568C12.8699 5.44288 12.9674 5.42372 13.1623 5.3854L16.1402 4.80019C16.5922 4.71136 16.8183 4.66694 16.959 4.7368C17.0815 4.79764 17.1707 4.90959 17.2028 5.04256C17.2396 5.19526 17.146 5.40574 16.9588 5.82669L15.7256 8.59966C15.6449 8.78123 15.6045 8.87202 15.6016 8.96226C15.5989 9.04191 15.617 9.12089 15.6539 9.19153C15.6957 9.27155 15.7715 9.33583 15.923 9.46438L18.2372 11.4277C18.5885 11.7257 18.7641 11.8748 18.7972 12.0283C18.8261 12.162 18.7942 12.3016 18.7102 12.4096C18.6138 12.5336 18.3909 12.5916 17.945 12.7077L15.0082 13.4725C14.8159 13.5226 14.7197 13.5476 14.6473 13.6016C14.5834 13.6492 14.5329 13.7125 14.5007 13.7854C14.4642 13.868 14.4612 13.9673 14.4552 14.166L14.3631 17.1994C14.3491 17.6599 14.3421 17.8901 14.2427 18.0117C14.1561 18.1176 14.0271 18.1797 13.8903 18.1814C13.7332 18.1833 13.5489 18.0452 13.1801 17.769L10.7511 15.9497C10.592 15.8306 10.5125 15.771 10.4252 15.7481C10.3481 15.7278 10.2671 15.7278 10.19 15.7481C10.1027 15.771 10.0232 15.8306 9.86414 15.9497L7.4351 17.769C7.06636 18.0452 6.88198 18.1833 6.72492 18.1814C6.58815 18.1797 6.45914 18.1176 6.37257 18.0117C6.27315 17.8901 6.26616 17.6599 6.25218 17.1994L6.16008 14.166C6.15405 13.9673 6.15103 13.868 6.11454 13.7854C6.08233 13.7125 6.03182 13.6492 5.96792 13.6016C5.89552 13.5476 5.79937 13.5226 5.60707 13.4725L2.67021 12.7077C2.22437 12.5916 2.00146 12.5336 1.90502 12.4096C1.82105 12.3016 1.78918 12.162 1.818 12.0283C1.85109 11.8748 2.02674 11.7257 2.37805 11.4277L4.69224 9.46438C4.84377 9.33583 4.91954 9.27155 4.96135 9.19153C4.99827 9.12089 5.01629 9.04191 5.01368 8.96226C5.01073 8.87202 4.97036 8.78123 4.88961 8.59966L3.65644 5.82669C3.46924 5.40574 3.37564 5.19526 3.41245 5.04256C3.4445 4.90959 3.53378 4.79764 3.65628 4.7368C3.79696 4.66694 4.02299 4.71136 4.47504 4.80019L7.4529 5.3854C7.64788 5.42372 7.74537 5.44288 7.83401 5.42568C7.91225 5.4105 7.98524 5.37535 8.04589 5.32364C8.1146 5.26507 8.16041 5.1769 8.25202 5.00056L9.65115 2.30751Z" stroke="#FEFAE0" stroke-width="2" stroke-linecap="round" stroke-linejoin="round" shape-rendering="crispEdges"/>
</g>
<defs>
<filter id="filter0_d_170_169" x="0.807617" y="0.584473" width="19" height="19.5969" filterUnits="userSpaceOnUse" color-interpolation-filters="sRGB">
<feFlood flood-opacity="0" result="BackgroundImageFix"/>
<feColorMatrix in="SourceAlpha" type="matrix" values="0 0 0 0 0 0 0 0 0 0 0 0 0 0 0 0 0 0 127 0" result="hardAlpha"/>
<feOffset dy="1"/>
<feComposite in2="hardAlpha" operator="out"/>
<feColorMatrix type="matrix" values="0 0 0 0 0.156863 0 0 0 0 0.211765 0 0 0 0 0.0941176 0 0 0 1 0"/>
<feBlend mode="normal" in2="BackgroundImageFix" result="effect1_dropShadow_170_169"/>
<feBlend mode="normal" in="SourceGraphic" in2="effect1_dropShadow_170_169" result="shape"/>
</filter>
</defs>
</svg>
